G04 #@! TF.FileFunction,Copper,L2,Bot,Signal*
%FSLAX46Y46*%
G04 Gerber Fmt 4.6, Leading zero omitted, Abs format (unit mm)*
G04 Created by KiCad (PCBNEW 4.0.2-stable) date 4/12/2016 1:25:12 PM*
%MOMM*%
G01*
G04 APERTURE LIST*
%ADD10C,0.100000*%
%ADD11R,1.300000X1.300000*%
%ADD12C,1.300000*%
%ADD13O,2.032000X2.540000*%
%ADD14C,1.998980*%
%ADD15O,1.600000X1.600000*%
%ADD16C,1.524000*%
%ADD17O,1.727200X1.727200*%
%ADD18R,1.727200X1.727200*%
%ADD19C,0.250000*%
G04 APERTURE END LIST*
D10*
D11*
X142240000Y-109220000D03*
D12*
X142240000Y-106720000D03*
D11*
X182880000Y-147320000D03*
D12*
X182880000Y-144820000D03*
D11*
X182880000Y-134620000D03*
D12*
X182880000Y-132120000D03*
D11*
X177165000Y-43180000D03*
D12*
X174665000Y-43180000D03*
D11*
X142240000Y-121920000D03*
D12*
X142240000Y-119420000D03*
D11*
X142240000Y-134620000D03*
D12*
X142240000Y-132120000D03*
D11*
X182880000Y-121920000D03*
D12*
X182880000Y-119420000D03*
D11*
X182880000Y-109220000D03*
D12*
X182880000Y-106720000D03*
D13*
X172720000Y-121920000D03*
X175260000Y-121920000D03*
X170180000Y-121920000D03*
X172720000Y-147320000D03*
X175260000Y-147320000D03*
X170180000Y-147320000D03*
X132080000Y-121920000D03*
X134620000Y-121920000D03*
X129540000Y-121920000D03*
X132080000Y-147320000D03*
X134620000Y-147320000D03*
X129540000Y-147320000D03*
X172720000Y-109220000D03*
X175260000Y-109220000D03*
X170180000Y-109220000D03*
X172720000Y-134620000D03*
X175260000Y-134620000D03*
X170180000Y-134620000D03*
X132080000Y-109220000D03*
X134620000Y-109220000D03*
X129540000Y-109220000D03*
X132080000Y-134620000D03*
X134620000Y-134620000D03*
X129540000Y-134620000D03*
D14*
X130810000Y-83820000D03*
X120650000Y-83820000D03*
X156210000Y-83820000D03*
X146050000Y-83820000D03*
X207010000Y-83820000D03*
X196850000Y-83820000D03*
X243840000Y-96520000D03*
X243840000Y-106680000D03*
X232410000Y-83820000D03*
X222250000Y-83820000D03*
X257810000Y-83820000D03*
X247650000Y-83820000D03*
X156210000Y-127000000D03*
X146050000Y-127000000D03*
X181610000Y-83820000D03*
X171450000Y-83820000D03*
D15*
X212725000Y-137795000D03*
X215265000Y-137795000D03*
X217805000Y-137795000D03*
X220345000Y-137795000D03*
X222885000Y-137795000D03*
X225425000Y-137795000D03*
X227965000Y-137795000D03*
X230505000Y-137795000D03*
X230505000Y-130175000D03*
X227965000Y-130175000D03*
X225425000Y-130175000D03*
X222885000Y-130175000D03*
X220345000Y-130175000D03*
X217805000Y-130175000D03*
X215265000Y-130175000D03*
X212725000Y-130175000D03*
X147320000Y-48260000D03*
X147320000Y-50800000D03*
X147320000Y-53340000D03*
X147320000Y-55880000D03*
X147320000Y-58420000D03*
X147320000Y-60960000D03*
X147320000Y-63500000D03*
X147320000Y-66040000D03*
X147320000Y-68580000D03*
X147320000Y-71120000D03*
X147320000Y-73660000D03*
X147320000Y-76200000D03*
X154940000Y-76200000D03*
X154940000Y-73660000D03*
X154940000Y-71120000D03*
X154940000Y-68580000D03*
X154940000Y-66040000D03*
X154940000Y-63500000D03*
X154940000Y-60960000D03*
X154940000Y-58420000D03*
X154940000Y-55880000D03*
X154940000Y-53340000D03*
X154940000Y-50800000D03*
X154940000Y-48260000D03*
X198120000Y-48260000D03*
X198120000Y-50800000D03*
X198120000Y-53340000D03*
X198120000Y-55880000D03*
X198120000Y-58420000D03*
X198120000Y-60960000D03*
X198120000Y-63500000D03*
X198120000Y-66040000D03*
X198120000Y-68580000D03*
X198120000Y-71120000D03*
X198120000Y-73660000D03*
X198120000Y-76200000D03*
X205740000Y-76200000D03*
X205740000Y-73660000D03*
X205740000Y-71120000D03*
X205740000Y-68580000D03*
X205740000Y-66040000D03*
X205740000Y-63500000D03*
X205740000Y-60960000D03*
X205740000Y-58420000D03*
X205740000Y-55880000D03*
X205740000Y-53340000D03*
X205740000Y-50800000D03*
X205740000Y-48260000D03*
X208280000Y-104140000D03*
X210820000Y-104140000D03*
X213360000Y-104140000D03*
X215900000Y-104140000D03*
X218440000Y-104140000D03*
X220980000Y-104140000D03*
X223520000Y-104140000D03*
X226060000Y-104140000D03*
X228600000Y-104140000D03*
X231140000Y-104140000D03*
X233680000Y-104140000D03*
X236220000Y-104140000D03*
X236220000Y-96520000D03*
X233680000Y-96520000D03*
X231140000Y-96520000D03*
X228600000Y-96520000D03*
X226060000Y-96520000D03*
X223520000Y-96520000D03*
X220980000Y-96520000D03*
X218440000Y-96520000D03*
X215900000Y-96520000D03*
X213360000Y-96520000D03*
X210820000Y-96520000D03*
X208280000Y-96520000D03*
X223520000Y-48260000D03*
X223520000Y-50800000D03*
X223520000Y-53340000D03*
X223520000Y-55880000D03*
X223520000Y-58420000D03*
X223520000Y-60960000D03*
X223520000Y-63500000D03*
X223520000Y-66040000D03*
X223520000Y-68580000D03*
X223520000Y-71120000D03*
X223520000Y-73660000D03*
X223520000Y-76200000D03*
X231140000Y-76200000D03*
X231140000Y-73660000D03*
X231140000Y-71120000D03*
X231140000Y-68580000D03*
X231140000Y-66040000D03*
X231140000Y-63500000D03*
X231140000Y-60960000D03*
X231140000Y-58420000D03*
X231140000Y-55880000D03*
X231140000Y-53340000D03*
X231140000Y-50800000D03*
X231140000Y-48260000D03*
X248920000Y-48260000D03*
X248920000Y-50800000D03*
X248920000Y-53340000D03*
X248920000Y-55880000D03*
X248920000Y-58420000D03*
X248920000Y-60960000D03*
X248920000Y-63500000D03*
X248920000Y-66040000D03*
X248920000Y-68580000D03*
X248920000Y-71120000D03*
X248920000Y-73660000D03*
X248920000Y-76200000D03*
X256540000Y-76200000D03*
X256540000Y-73660000D03*
X256540000Y-71120000D03*
X256540000Y-68580000D03*
X256540000Y-66040000D03*
X256540000Y-63500000D03*
X256540000Y-60960000D03*
X256540000Y-58420000D03*
X256540000Y-55880000D03*
X256540000Y-53340000D03*
X256540000Y-50800000D03*
X256540000Y-48260000D03*
D11*
X203200000Y-43180000D03*
D12*
X200700000Y-43180000D03*
D11*
X127000000Y-43180000D03*
D12*
X124500000Y-43180000D03*
D11*
X152400000Y-43180000D03*
D12*
X149900000Y-43180000D03*
D11*
X203200000Y-99060000D03*
D12*
X203200000Y-101560000D03*
D11*
X228600000Y-43180000D03*
D12*
X226100000Y-43180000D03*
D11*
X254000000Y-43180000D03*
D12*
X251500000Y-43180000D03*
D11*
X142240000Y-147320000D03*
D12*
X142240000Y-144820000D03*
D11*
X223520000Y-123825000D03*
D12*
X223520000Y-121325000D03*
D15*
X121920000Y-48260000D03*
X121920000Y-50800000D03*
X121920000Y-53340000D03*
X121920000Y-55880000D03*
X121920000Y-58420000D03*
X121920000Y-60960000D03*
X121920000Y-63500000D03*
X121920000Y-66040000D03*
X121920000Y-68580000D03*
X121920000Y-71120000D03*
X121920000Y-73660000D03*
X121920000Y-76200000D03*
X129540000Y-76200000D03*
X129540000Y-73660000D03*
X129540000Y-71120000D03*
X129540000Y-68580000D03*
X129540000Y-66040000D03*
X129540000Y-63500000D03*
X129540000Y-60960000D03*
X129540000Y-58420000D03*
X129540000Y-55880000D03*
X129540000Y-53340000D03*
X129540000Y-50800000D03*
X129540000Y-48260000D03*
D11*
X108585000Y-65405000D03*
D12*
X111085000Y-65405000D03*
D11*
X215900000Y-122555000D03*
D12*
X218400000Y-122555000D03*
D15*
X147320000Y-91440000D03*
X147320000Y-93980000D03*
X147320000Y-96520000D03*
X147320000Y-99060000D03*
X147320000Y-101600000D03*
X147320000Y-104140000D03*
X147320000Y-106680000D03*
X147320000Y-109220000D03*
X147320000Y-111760000D03*
X147320000Y-114300000D03*
X147320000Y-116840000D03*
X147320000Y-119380000D03*
X154940000Y-119380000D03*
X154940000Y-116840000D03*
X154940000Y-114300000D03*
X154940000Y-111760000D03*
X154940000Y-109220000D03*
X154940000Y-106680000D03*
X154940000Y-104140000D03*
X154940000Y-101600000D03*
X154940000Y-99060000D03*
X154940000Y-96520000D03*
X154940000Y-93980000D03*
X154940000Y-91440000D03*
X172720000Y-48260000D03*
X172720000Y-50800000D03*
X172720000Y-53340000D03*
X172720000Y-55880000D03*
X172720000Y-58420000D03*
X172720000Y-60960000D03*
X172720000Y-63500000D03*
X172720000Y-66040000D03*
X172720000Y-68580000D03*
X172720000Y-71120000D03*
X172720000Y-73660000D03*
X172720000Y-76200000D03*
X180340000Y-76200000D03*
X180340000Y-73660000D03*
X180340000Y-71120000D03*
X180340000Y-68580000D03*
X180340000Y-66040000D03*
X180340000Y-63500000D03*
X180340000Y-60960000D03*
X180340000Y-58420000D03*
X180340000Y-55880000D03*
X180340000Y-53340000D03*
X180340000Y-50800000D03*
X180340000Y-48260000D03*
D16*
X232410000Y-111125000D03*
X227330000Y-111125000D03*
X224790000Y-111125000D03*
X222250000Y-111125000D03*
X219710000Y-111125000D03*
X217170000Y-111125000D03*
X214630000Y-111125000D03*
X209550000Y-111125000D03*
X207010000Y-111125000D03*
X204470000Y-111125000D03*
X201930000Y-111125000D03*
X199390000Y-111125000D03*
X196850000Y-111125000D03*
X196850000Y-159385000D03*
X199390000Y-159385000D03*
X201930000Y-159385000D03*
X204470000Y-159385000D03*
X207010000Y-159385000D03*
X209550000Y-159385000D03*
X212090000Y-159385000D03*
X214630000Y-159385000D03*
X218694000Y-159385000D03*
X221234000Y-159385000D03*
X223774000Y-159385000D03*
X226314000Y-159385000D03*
X228854000Y-159385000D03*
X231394000Y-159385000D03*
X233934000Y-159385000D03*
X236474000Y-159385000D03*
X239014000Y-159385000D03*
X241554000Y-159385000D03*
X229870000Y-111125000D03*
D17*
X137160000Y-86360000D03*
X139700000Y-88900000D03*
X137160000Y-88900000D03*
D18*
X137160000Y-48260000D03*
D17*
X139700000Y-48260000D03*
X137160000Y-50800000D03*
X139700000Y-50800000D03*
X137160000Y-53340000D03*
X139700000Y-53340000D03*
X137160000Y-55880000D03*
X139700000Y-55880000D03*
X137160000Y-58420000D03*
X139700000Y-58420000D03*
X137160000Y-60960000D03*
X139700000Y-60960000D03*
X137160000Y-63500000D03*
X139700000Y-63500000D03*
X137160000Y-66040000D03*
X139700000Y-66040000D03*
X137160000Y-68580000D03*
X139700000Y-68580000D03*
X137160000Y-71120000D03*
X139700000Y-71120000D03*
X137160000Y-73660000D03*
X139700000Y-73660000D03*
X137160000Y-76200000D03*
X139700000Y-76200000D03*
X137160000Y-78740000D03*
X139700000Y-78740000D03*
X137160000Y-81280000D03*
X139700000Y-81280000D03*
X137160000Y-83820000D03*
X139700000Y-83820000D03*
X139700000Y-86360000D03*
X162560000Y-86360000D03*
X165100000Y-88900000D03*
X162560000Y-88900000D03*
D18*
X162560000Y-48260000D03*
D17*
X165100000Y-48260000D03*
X162560000Y-50800000D03*
X165100000Y-50800000D03*
X162560000Y-53340000D03*
X165100000Y-53340000D03*
X162560000Y-55880000D03*
X165100000Y-55880000D03*
X162560000Y-58420000D03*
X165100000Y-58420000D03*
X162560000Y-60960000D03*
X165100000Y-60960000D03*
X162560000Y-63500000D03*
X165100000Y-63500000D03*
X162560000Y-66040000D03*
X165100000Y-66040000D03*
X162560000Y-68580000D03*
X165100000Y-68580000D03*
X162560000Y-71120000D03*
X165100000Y-71120000D03*
X162560000Y-73660000D03*
X165100000Y-73660000D03*
X162560000Y-76200000D03*
X165100000Y-76200000D03*
X162560000Y-78740000D03*
X165100000Y-78740000D03*
X162560000Y-81280000D03*
X165100000Y-81280000D03*
X162560000Y-83820000D03*
X165100000Y-83820000D03*
X165100000Y-86360000D03*
X187960000Y-86360000D03*
X190500000Y-88900000D03*
X187960000Y-88900000D03*
D18*
X187960000Y-48260000D03*
D17*
X190500000Y-48260000D03*
X187960000Y-50800000D03*
X190500000Y-50800000D03*
X187960000Y-53340000D03*
X190500000Y-53340000D03*
X187960000Y-55880000D03*
X190500000Y-55880000D03*
X187960000Y-58420000D03*
X190500000Y-58420000D03*
X187960000Y-60960000D03*
X190500000Y-60960000D03*
X187960000Y-63500000D03*
X190500000Y-63500000D03*
X187960000Y-66040000D03*
X190500000Y-66040000D03*
X187960000Y-68580000D03*
X190500000Y-68580000D03*
X187960000Y-71120000D03*
X190500000Y-71120000D03*
X187960000Y-73660000D03*
X190500000Y-73660000D03*
X187960000Y-76200000D03*
X190500000Y-76200000D03*
X187960000Y-78740000D03*
X190500000Y-78740000D03*
X187960000Y-81280000D03*
X190500000Y-81280000D03*
X187960000Y-83820000D03*
X190500000Y-83820000D03*
X190500000Y-86360000D03*
X213360000Y-86360000D03*
X215900000Y-88900000D03*
X213360000Y-88900000D03*
D18*
X213360000Y-48260000D03*
D17*
X215900000Y-48260000D03*
X213360000Y-50800000D03*
X215900000Y-50800000D03*
X213360000Y-53340000D03*
X215900000Y-53340000D03*
X213360000Y-55880000D03*
X215900000Y-55880000D03*
X213360000Y-58420000D03*
X215900000Y-58420000D03*
X213360000Y-60960000D03*
X215900000Y-60960000D03*
X213360000Y-63500000D03*
X215900000Y-63500000D03*
X213360000Y-66040000D03*
X215900000Y-66040000D03*
X213360000Y-68580000D03*
X215900000Y-68580000D03*
X213360000Y-71120000D03*
X215900000Y-71120000D03*
X213360000Y-73660000D03*
X215900000Y-73660000D03*
X213360000Y-76200000D03*
X215900000Y-76200000D03*
X213360000Y-78740000D03*
X215900000Y-78740000D03*
X213360000Y-81280000D03*
X215900000Y-81280000D03*
X213360000Y-83820000D03*
X215900000Y-83820000D03*
X215900000Y-86360000D03*
X238760000Y-86360000D03*
X241300000Y-88900000D03*
X238760000Y-88900000D03*
D18*
X238760000Y-48260000D03*
D17*
X241300000Y-48260000D03*
X238760000Y-50800000D03*
X241300000Y-50800000D03*
X238760000Y-53340000D03*
X241300000Y-53340000D03*
X238760000Y-55880000D03*
X241300000Y-55880000D03*
X238760000Y-58420000D03*
X241300000Y-58420000D03*
X238760000Y-60960000D03*
X241300000Y-60960000D03*
X238760000Y-63500000D03*
X241300000Y-63500000D03*
X238760000Y-66040000D03*
X241300000Y-66040000D03*
X238760000Y-68580000D03*
X241300000Y-68580000D03*
X238760000Y-71120000D03*
X241300000Y-71120000D03*
X238760000Y-73660000D03*
X241300000Y-73660000D03*
X238760000Y-76200000D03*
X241300000Y-76200000D03*
X238760000Y-78740000D03*
X241300000Y-78740000D03*
X238760000Y-81280000D03*
X241300000Y-81280000D03*
X238760000Y-83820000D03*
X241300000Y-83820000D03*
X241300000Y-86360000D03*
D19*
X295420000Y-99695000D02*
X286060000Y-90335000D01*
M02*
