G04 #@! TF.FileFunction,Legend,Top*
%FSLAX46Y46*%
G04 Gerber Fmt 4.6, Leading zero omitted, Abs format (unit mm)*
G04 Created by KiCad (PCBNEW 4.0.2-stable) date 4/12/2016 1:25:12 PM*
%MOMM*%
G01*
G04 APERTURE LIST*
%ADD10C,0.100000*%
%ADD11C,0.150000*%
%ADD12C,0.010000*%
G04 APERTURE END LIST*
D10*
D11*
X140990000Y-109470000D02*
X140990000Y-106470000D01*
X143490000Y-106470000D02*
X143490000Y-109470000D01*
X181630000Y-147570000D02*
X181630000Y-144570000D01*
X184130000Y-144570000D02*
X184130000Y-147570000D01*
X181630000Y-134870000D02*
X181630000Y-131870000D01*
X184130000Y-131870000D02*
X184130000Y-134870000D01*
X177415000Y-44430000D02*
X174415000Y-44430000D01*
X174415000Y-41930000D02*
X177415000Y-41930000D01*
X140990000Y-122170000D02*
X140990000Y-119170000D01*
X143490000Y-119170000D02*
X143490000Y-122170000D01*
X140990000Y-134870000D02*
X140990000Y-131870000D01*
X143490000Y-131870000D02*
X143490000Y-134870000D01*
X181630000Y-122170000D02*
X181630000Y-119170000D01*
X184130000Y-119170000D02*
X184130000Y-122170000D01*
X181630000Y-109470000D02*
X181630000Y-106470000D01*
X184130000Y-106470000D02*
X184130000Y-109470000D01*
X177546000Y-120269000D02*
X177546000Y-123698000D01*
X167894000Y-120269000D02*
X167894000Y-123698000D01*
X178054000Y-119126000D02*
X167386000Y-119126000D01*
X174498000Y-120142000D02*
X174498000Y-118872000D01*
X170942000Y-120142000D02*
X170942000Y-118872000D01*
X167386000Y-120269000D02*
X178054000Y-120269000D01*
X178054000Y-123698000D02*
X167386000Y-123698000D01*
X167386000Y-118872000D02*
X167386000Y-123698000D01*
X178054000Y-118872000D02*
X178054000Y-123698000D01*
X178054000Y-118872000D02*
X167386000Y-118872000D01*
X177546000Y-145669000D02*
X177546000Y-149098000D01*
X167894000Y-145669000D02*
X167894000Y-149098000D01*
X178054000Y-144526000D02*
X167386000Y-144526000D01*
X174498000Y-145542000D02*
X174498000Y-144272000D01*
X170942000Y-145542000D02*
X170942000Y-144272000D01*
X167386000Y-145669000D02*
X178054000Y-145669000D01*
X178054000Y-149098000D02*
X167386000Y-149098000D01*
X167386000Y-144272000D02*
X167386000Y-149098000D01*
X178054000Y-144272000D02*
X178054000Y-149098000D01*
X178054000Y-144272000D02*
X167386000Y-144272000D01*
X136906000Y-120269000D02*
X136906000Y-123698000D01*
X127254000Y-120269000D02*
X127254000Y-123698000D01*
X137414000Y-119126000D02*
X126746000Y-119126000D01*
X133858000Y-120142000D02*
X133858000Y-118872000D01*
X130302000Y-120142000D02*
X130302000Y-118872000D01*
X126746000Y-120269000D02*
X137414000Y-120269000D01*
X137414000Y-123698000D02*
X126746000Y-123698000D01*
X126746000Y-118872000D02*
X126746000Y-123698000D01*
X137414000Y-118872000D02*
X137414000Y-123698000D01*
X137414000Y-118872000D02*
X126746000Y-118872000D01*
X136906000Y-145669000D02*
X136906000Y-149098000D01*
X127254000Y-145669000D02*
X127254000Y-149098000D01*
X137414000Y-144526000D02*
X126746000Y-144526000D01*
X133858000Y-145542000D02*
X133858000Y-144272000D01*
X130302000Y-145542000D02*
X130302000Y-144272000D01*
X126746000Y-145669000D02*
X137414000Y-145669000D01*
X137414000Y-149098000D02*
X126746000Y-149098000D01*
X126746000Y-144272000D02*
X126746000Y-149098000D01*
X137414000Y-144272000D02*
X137414000Y-149098000D01*
X137414000Y-144272000D02*
X126746000Y-144272000D01*
X177546000Y-107569000D02*
X177546000Y-110998000D01*
X167894000Y-107569000D02*
X167894000Y-110998000D01*
X178054000Y-106426000D02*
X167386000Y-106426000D01*
X174498000Y-107442000D02*
X174498000Y-106172000D01*
X170942000Y-107442000D02*
X170942000Y-106172000D01*
X167386000Y-107569000D02*
X178054000Y-107569000D01*
X178054000Y-110998000D02*
X167386000Y-110998000D01*
X167386000Y-106172000D02*
X167386000Y-110998000D01*
X178054000Y-106172000D02*
X178054000Y-110998000D01*
X178054000Y-106172000D02*
X167386000Y-106172000D01*
X177546000Y-132969000D02*
X177546000Y-136398000D01*
X167894000Y-132969000D02*
X167894000Y-136398000D01*
X178054000Y-131826000D02*
X167386000Y-131826000D01*
X174498000Y-132842000D02*
X174498000Y-131572000D01*
X170942000Y-132842000D02*
X170942000Y-131572000D01*
X167386000Y-132969000D02*
X178054000Y-132969000D01*
X178054000Y-136398000D02*
X167386000Y-136398000D01*
X167386000Y-131572000D02*
X167386000Y-136398000D01*
X178054000Y-131572000D02*
X178054000Y-136398000D01*
X178054000Y-131572000D02*
X167386000Y-131572000D01*
X136906000Y-107569000D02*
X136906000Y-110998000D01*
X127254000Y-107569000D02*
X127254000Y-110998000D01*
X137414000Y-106426000D02*
X126746000Y-106426000D01*
X133858000Y-107442000D02*
X133858000Y-106172000D01*
X130302000Y-107442000D02*
X130302000Y-106172000D01*
X126746000Y-107569000D02*
X137414000Y-107569000D01*
X137414000Y-110998000D02*
X126746000Y-110998000D01*
X126746000Y-106172000D02*
X126746000Y-110998000D01*
X137414000Y-106172000D02*
X137414000Y-110998000D01*
X137414000Y-106172000D02*
X126746000Y-106172000D01*
X136906000Y-132969000D02*
X136906000Y-136398000D01*
X127254000Y-132969000D02*
X127254000Y-136398000D01*
X137414000Y-131826000D02*
X126746000Y-131826000D01*
X133858000Y-132842000D02*
X133858000Y-131572000D01*
X130302000Y-132842000D02*
X130302000Y-131572000D01*
X126746000Y-132969000D02*
X137414000Y-132969000D01*
X137414000Y-136398000D02*
X126746000Y-136398000D01*
X126746000Y-131572000D02*
X126746000Y-136398000D01*
X137414000Y-131572000D02*
X137414000Y-136398000D01*
X137414000Y-131572000D02*
X126746000Y-131572000D01*
X128270000Y-85090000D02*
X123190000Y-85090000D01*
X123190000Y-85090000D02*
X123190000Y-82550000D01*
X123190000Y-82550000D02*
X128270000Y-82550000D01*
X128270000Y-82550000D02*
X128270000Y-85090000D01*
X128270000Y-83820000D02*
X129540000Y-83820000D01*
X123190000Y-83820000D02*
X121920000Y-83820000D01*
X153670000Y-85090000D02*
X148590000Y-85090000D01*
X148590000Y-85090000D02*
X148590000Y-82550000D01*
X148590000Y-82550000D02*
X153670000Y-82550000D01*
X153670000Y-82550000D02*
X153670000Y-85090000D01*
X153670000Y-83820000D02*
X154940000Y-83820000D01*
X148590000Y-83820000D02*
X147320000Y-83820000D01*
X204470000Y-85090000D02*
X199390000Y-85090000D01*
X199390000Y-85090000D02*
X199390000Y-82550000D01*
X199390000Y-82550000D02*
X204470000Y-82550000D01*
X204470000Y-82550000D02*
X204470000Y-85090000D01*
X204470000Y-83820000D02*
X205740000Y-83820000D01*
X199390000Y-83820000D02*
X198120000Y-83820000D01*
X245110000Y-99060000D02*
X245110000Y-104140000D01*
X245110000Y-104140000D02*
X242570000Y-104140000D01*
X242570000Y-104140000D02*
X242570000Y-99060000D01*
X242570000Y-99060000D02*
X245110000Y-99060000D01*
X243840000Y-99060000D02*
X243840000Y-97790000D01*
X243840000Y-104140000D02*
X243840000Y-105410000D01*
X229870000Y-85090000D02*
X224790000Y-85090000D01*
X224790000Y-85090000D02*
X224790000Y-82550000D01*
X224790000Y-82550000D02*
X229870000Y-82550000D01*
X229870000Y-82550000D02*
X229870000Y-85090000D01*
X229870000Y-83820000D02*
X231140000Y-83820000D01*
X224790000Y-83820000D02*
X223520000Y-83820000D01*
X255270000Y-85090000D02*
X250190000Y-85090000D01*
X250190000Y-85090000D02*
X250190000Y-82550000D01*
X250190000Y-82550000D02*
X255270000Y-82550000D01*
X255270000Y-82550000D02*
X255270000Y-85090000D01*
X255270000Y-83820000D02*
X256540000Y-83820000D01*
X250190000Y-83820000D02*
X248920000Y-83820000D01*
X153670000Y-128270000D02*
X148590000Y-128270000D01*
X148590000Y-128270000D02*
X148590000Y-125730000D01*
X148590000Y-125730000D02*
X153670000Y-125730000D01*
X153670000Y-125730000D02*
X153670000Y-128270000D01*
X153670000Y-127000000D02*
X154940000Y-127000000D01*
X148590000Y-127000000D02*
X147320000Y-127000000D01*
X179070000Y-85090000D02*
X173990000Y-85090000D01*
X173990000Y-85090000D02*
X173990000Y-82550000D01*
X173990000Y-82550000D02*
X179070000Y-82550000D01*
X179070000Y-82550000D02*
X179070000Y-85090000D01*
X179070000Y-83820000D02*
X180340000Y-83820000D01*
X173990000Y-83820000D02*
X172720000Y-83820000D01*
X210430000Y-137660000D02*
X211700000Y-137660000D01*
X210430000Y-130310000D02*
X211700000Y-130310000D01*
X232800000Y-130310000D02*
X231530000Y-130310000D01*
X232800000Y-137660000D02*
X231530000Y-137660000D01*
X210430000Y-137660000D02*
X210430000Y-130310000D01*
X232800000Y-137660000D02*
X232800000Y-130310000D01*
X211700000Y-137660000D02*
X211700000Y-138595000D01*
X147455000Y-45965000D02*
X147455000Y-47235000D01*
X154805000Y-45965000D02*
X154805000Y-47235000D01*
X154805000Y-78495000D02*
X154805000Y-77225000D01*
X147455000Y-78495000D02*
X147455000Y-77225000D01*
X147455000Y-45965000D02*
X154805000Y-45965000D01*
X147455000Y-78495000D02*
X154805000Y-78495000D01*
X147455000Y-47235000D02*
X146520000Y-47235000D01*
X198255000Y-45965000D02*
X198255000Y-47235000D01*
X205605000Y-45965000D02*
X205605000Y-47235000D01*
X205605000Y-78495000D02*
X205605000Y-77225000D01*
X198255000Y-78495000D02*
X198255000Y-77225000D01*
X198255000Y-45965000D02*
X205605000Y-45965000D01*
X198255000Y-78495000D02*
X205605000Y-78495000D01*
X198255000Y-47235000D02*
X197320000Y-47235000D01*
X205985000Y-104005000D02*
X207255000Y-104005000D01*
X205985000Y-96655000D02*
X207255000Y-96655000D01*
X238515000Y-96655000D02*
X237245000Y-96655000D01*
X238515000Y-104005000D02*
X237245000Y-104005000D01*
X205985000Y-104005000D02*
X205985000Y-96655000D01*
X238515000Y-104005000D02*
X238515000Y-96655000D01*
X207255000Y-104005000D02*
X207255000Y-104940000D01*
X223655000Y-45965000D02*
X223655000Y-47235000D01*
X231005000Y-45965000D02*
X231005000Y-47235000D01*
X231005000Y-78495000D02*
X231005000Y-77225000D01*
X223655000Y-78495000D02*
X223655000Y-77225000D01*
X223655000Y-45965000D02*
X231005000Y-45965000D01*
X223655000Y-78495000D02*
X231005000Y-78495000D01*
X223655000Y-47235000D02*
X222720000Y-47235000D01*
X249055000Y-45965000D02*
X249055000Y-47235000D01*
X256405000Y-45965000D02*
X256405000Y-47235000D01*
X256405000Y-78495000D02*
X256405000Y-77225000D01*
X249055000Y-78495000D02*
X249055000Y-77225000D01*
X249055000Y-45965000D02*
X256405000Y-45965000D01*
X249055000Y-78495000D02*
X256405000Y-78495000D01*
X249055000Y-47235000D02*
X248120000Y-47235000D01*
X203450000Y-44430000D02*
X200450000Y-44430000D01*
X200450000Y-41930000D02*
X203450000Y-41930000D01*
X127250000Y-44430000D02*
X124250000Y-44430000D01*
X124250000Y-41930000D02*
X127250000Y-41930000D01*
X152650000Y-44430000D02*
X149650000Y-44430000D01*
X149650000Y-41930000D02*
X152650000Y-41930000D01*
X204450000Y-98810000D02*
X204450000Y-101810000D01*
X201950000Y-101810000D02*
X201950000Y-98810000D01*
X228850000Y-44430000D02*
X225850000Y-44430000D01*
X225850000Y-41930000D02*
X228850000Y-41930000D01*
X254250000Y-44430000D02*
X251250000Y-44430000D01*
X251250000Y-41930000D02*
X254250000Y-41930000D01*
X140990000Y-147570000D02*
X140990000Y-144570000D01*
X143490000Y-144570000D02*
X143490000Y-147570000D01*
X222270000Y-124075000D02*
X222270000Y-121075000D01*
X224770000Y-121075000D02*
X224770000Y-124075000D01*
X122055000Y-45965000D02*
X122055000Y-47235000D01*
X129405000Y-45965000D02*
X129405000Y-47235000D01*
X129405000Y-78495000D02*
X129405000Y-77225000D01*
X122055000Y-78495000D02*
X122055000Y-77225000D01*
X122055000Y-45965000D02*
X129405000Y-45965000D01*
X122055000Y-78495000D02*
X129405000Y-78495000D01*
X122055000Y-47235000D02*
X121120000Y-47235000D01*
X108335000Y-64155000D02*
X111335000Y-64155000D01*
X111335000Y-66655000D02*
X108335000Y-66655000D01*
X217225000Y-120056000D02*
X217225000Y-125054000D01*
X217365000Y-120064000D02*
X217365000Y-125046000D01*
X217505000Y-120080000D02*
X217505000Y-122460000D01*
X217505000Y-122650000D02*
X217505000Y-125030000D01*
X217645000Y-120104000D02*
X217645000Y-122065000D01*
X217645000Y-123045000D02*
X217645000Y-125006000D01*
X217785000Y-120137000D02*
X217785000Y-121898000D01*
X217785000Y-123212000D02*
X217785000Y-124973000D01*
X217925000Y-120178000D02*
X217925000Y-121791000D01*
X217925000Y-123319000D02*
X217925000Y-124932000D01*
X218065000Y-120228000D02*
X218065000Y-121720000D01*
X218065000Y-123390000D02*
X218065000Y-124882000D01*
X218205000Y-120289000D02*
X218205000Y-121676000D01*
X218205000Y-123434000D02*
X218205000Y-124821000D01*
X218345000Y-120359000D02*
X218345000Y-121657000D01*
X218345000Y-123453000D02*
X218345000Y-124751000D01*
X218485000Y-120441000D02*
X218485000Y-121659000D01*
X218485000Y-123451000D02*
X218485000Y-124669000D01*
X218625000Y-120536000D02*
X218625000Y-121684000D01*
X218625000Y-123426000D02*
X218625000Y-124574000D01*
X218765000Y-120647000D02*
X218765000Y-121732000D01*
X218765000Y-123378000D02*
X218765000Y-124463000D01*
X218905000Y-120775000D02*
X218905000Y-121810000D01*
X218905000Y-123300000D02*
X218905000Y-124335000D01*
X219045000Y-120924000D02*
X219045000Y-121927000D01*
X219045000Y-123183000D02*
X219045000Y-124186000D01*
X219185000Y-121103000D02*
X219185000Y-122115000D01*
X219185000Y-122995000D02*
X219185000Y-124007000D01*
X219325000Y-121322000D02*
X219325000Y-123788000D01*
X219465000Y-121611000D02*
X219465000Y-123499000D01*
X219605000Y-122083000D02*
X219605000Y-123027000D01*
X219300000Y-122555000D02*
G75*
G03X219300000Y-122555000I-900000J0D01*
G01*
X219687500Y-122555000D02*
G75*
G03X219687500Y-122555000I-2537500J0D01*
G01*
X147455000Y-89145000D02*
X147455000Y-90415000D01*
X154805000Y-89145000D02*
X154805000Y-90415000D01*
X154805000Y-121675000D02*
X154805000Y-120405000D01*
X147455000Y-121675000D02*
X147455000Y-120405000D01*
X147455000Y-89145000D02*
X154805000Y-89145000D01*
X147455000Y-121675000D02*
X154805000Y-121675000D01*
X147455000Y-90415000D02*
X146520000Y-90415000D01*
X172855000Y-45965000D02*
X172855000Y-47235000D01*
X180205000Y-45965000D02*
X180205000Y-47235000D01*
X180205000Y-78495000D02*
X180205000Y-77225000D01*
X172855000Y-78495000D02*
X172855000Y-77225000D01*
X172855000Y-45965000D02*
X180205000Y-45965000D01*
X172855000Y-78495000D02*
X180205000Y-78495000D01*
X172855000Y-47235000D02*
X171920000Y-47235000D01*
X191770000Y-108585000D02*
X260350000Y-108585000D01*
X260350000Y-108585000D02*
X260350000Y-161925000D01*
X260350000Y-161925000D02*
X191770000Y-161925000D01*
X191770000Y-161925000D02*
X191770000Y-108585000D01*
D12*
X195834000Y-116205000D02*
G75*
G03X195834000Y-116205000I-1524000J0D01*
G01*
X194818000Y-116205000D02*
X193802000Y-116205000D01*
X194310000Y-116713000D02*
X194310000Y-115697000D01*
X195834000Y-144145000D02*
G75*
G03X195834000Y-144145000I-1524000J0D01*
G01*
X193802000Y-144145000D02*
X194818000Y-144145000D01*
X194310000Y-144653000D02*
X194310000Y-143637000D01*
D11*
X217424000Y-160655000D02*
X217424000Y-158115000D01*
X217424000Y-158115000D02*
X242824000Y-158115000D01*
X242824000Y-158115000D02*
X242824000Y-160655000D01*
X242824000Y-160655000D02*
X217424000Y-160655000D01*
D12*
X245618000Y-159385000D02*
X244602000Y-159385000D01*
X245110000Y-159893000D02*
X245110000Y-158877000D01*
D11*
X215900000Y-160655000D02*
X195580000Y-160655000D01*
X195580000Y-160655000D02*
X195580000Y-158115000D01*
X195580000Y-158115000D02*
X215900000Y-158115000D01*
X215900000Y-158115000D02*
X215900000Y-160655000D01*
X210820000Y-112395000D02*
X195580000Y-112395000D01*
X195580000Y-112395000D02*
X195580000Y-109855000D01*
X195580000Y-109855000D02*
X210820000Y-109855000D01*
X210820000Y-109855000D02*
X210820000Y-112395000D01*
X233680000Y-109855000D02*
X233680000Y-112395000D01*
X233680000Y-112649000D02*
X213360000Y-112649000D01*
X213360000Y-112395000D02*
X213360000Y-109855000D01*
X213360000Y-109855000D02*
X233680000Y-109855000D01*
D12*
X247142000Y-111125000D02*
X245618000Y-111125000D01*
X246380000Y-111887000D02*
X246380000Y-110363000D01*
D11*
X134620000Y-66040000D02*
X135128000Y-66040000D01*
X135128000Y-66040000D02*
X135128000Y-71120000D01*
X135128000Y-71120000D02*
X134620000Y-71120000D01*
X142240000Y-43180000D02*
X142240000Y-93980000D01*
X142240000Y-43180000D02*
X134620000Y-43180000D01*
X134620000Y-43180000D02*
X134620000Y-93980000D01*
X134620000Y-93980000D02*
X142240000Y-93980000D01*
X160020000Y-66040000D02*
X160528000Y-66040000D01*
X160528000Y-66040000D02*
X160528000Y-71120000D01*
X160528000Y-71120000D02*
X160020000Y-71120000D01*
X167640000Y-43180000D02*
X167640000Y-93980000D01*
X167640000Y-43180000D02*
X160020000Y-43180000D01*
X160020000Y-43180000D02*
X160020000Y-93980000D01*
X160020000Y-93980000D02*
X167640000Y-93980000D01*
X185420000Y-66040000D02*
X185928000Y-66040000D01*
X185928000Y-66040000D02*
X185928000Y-71120000D01*
X185928000Y-71120000D02*
X185420000Y-71120000D01*
X193040000Y-43180000D02*
X193040000Y-93980000D01*
X193040000Y-43180000D02*
X185420000Y-43180000D01*
X185420000Y-43180000D02*
X185420000Y-93980000D01*
X185420000Y-93980000D02*
X193040000Y-93980000D01*
X210820000Y-66040000D02*
X211328000Y-66040000D01*
X211328000Y-66040000D02*
X211328000Y-71120000D01*
X211328000Y-71120000D02*
X210820000Y-71120000D01*
X218440000Y-43180000D02*
X218440000Y-93980000D01*
X218440000Y-43180000D02*
X210820000Y-43180000D01*
X210820000Y-43180000D02*
X210820000Y-93980000D01*
X210820000Y-93980000D02*
X218440000Y-93980000D01*
X236220000Y-66040000D02*
X236728000Y-66040000D01*
X236728000Y-66040000D02*
X236728000Y-71120000D01*
X236728000Y-71120000D02*
X236220000Y-71120000D01*
X243840000Y-43180000D02*
X243840000Y-93980000D01*
X243840000Y-43180000D02*
X236220000Y-43180000D01*
X236220000Y-43180000D02*
X236220000Y-93980000D01*
X236220000Y-93980000D02*
X243840000Y-93980000D01*
X140097143Y-108136666D02*
X140144762Y-108184285D01*
X140192381Y-108327142D01*
X140192381Y-108422380D01*
X140144762Y-108565238D01*
X140049524Y-108660476D01*
X139954286Y-108708095D01*
X139763810Y-108755714D01*
X139620952Y-108755714D01*
X139430476Y-108708095D01*
X139335238Y-108660476D01*
X139240000Y-108565238D01*
X139192381Y-108422380D01*
X139192381Y-108327142D01*
X139240000Y-108184285D01*
X139287619Y-108136666D01*
X139287619Y-107755714D02*
X139240000Y-107708095D01*
X139192381Y-107612857D01*
X139192381Y-107374761D01*
X139240000Y-107279523D01*
X139287619Y-107231904D01*
X139382857Y-107184285D01*
X139478095Y-107184285D01*
X139620952Y-107231904D01*
X140192381Y-107803333D01*
X140192381Y-107184285D01*
X180737143Y-146236666D02*
X180784762Y-146284285D01*
X180832381Y-146427142D01*
X180832381Y-146522380D01*
X180784762Y-146665238D01*
X180689524Y-146760476D01*
X180594286Y-146808095D01*
X180403810Y-146855714D01*
X180260952Y-146855714D01*
X180070476Y-146808095D01*
X179975238Y-146760476D01*
X179880000Y-146665238D01*
X179832381Y-146522380D01*
X179832381Y-146427142D01*
X179880000Y-146284285D01*
X179927619Y-146236666D01*
X180165714Y-145379523D02*
X180832381Y-145379523D01*
X179784762Y-145617619D02*
X180499048Y-145855714D01*
X180499048Y-145236666D01*
X180737143Y-133536666D02*
X180784762Y-133584285D01*
X180832381Y-133727142D01*
X180832381Y-133822380D01*
X180784762Y-133965238D01*
X180689524Y-134060476D01*
X180594286Y-134108095D01*
X180403810Y-134155714D01*
X180260952Y-134155714D01*
X180070476Y-134108095D01*
X179975238Y-134060476D01*
X179880000Y-133965238D01*
X179832381Y-133822380D01*
X179832381Y-133727142D01*
X179880000Y-133584285D01*
X179927619Y-133536666D01*
X179832381Y-132631904D02*
X179832381Y-133108095D01*
X180308571Y-133155714D01*
X180260952Y-133108095D01*
X180213333Y-133012857D01*
X180213333Y-132774761D01*
X180260952Y-132679523D01*
X180308571Y-132631904D01*
X180403810Y-132584285D01*
X180641905Y-132584285D01*
X180737143Y-132631904D01*
X180784762Y-132679523D01*
X180832381Y-132774761D01*
X180832381Y-133012857D01*
X180784762Y-133108095D01*
X180737143Y-133155714D01*
X175748334Y-46037143D02*
X175700715Y-46084762D01*
X175557858Y-46132381D01*
X175462620Y-46132381D01*
X175319762Y-46084762D01*
X175224524Y-45989524D01*
X175176905Y-45894286D01*
X175129286Y-45703810D01*
X175129286Y-45560952D01*
X175176905Y-45370476D01*
X175224524Y-45275238D01*
X175319762Y-45180000D01*
X175462620Y-45132381D01*
X175557858Y-45132381D01*
X175700715Y-45180000D01*
X175748334Y-45227619D01*
X176605477Y-45132381D02*
X176415000Y-45132381D01*
X176319762Y-45180000D01*
X176272143Y-45227619D01*
X176176905Y-45370476D01*
X176129286Y-45560952D01*
X176129286Y-45941905D01*
X176176905Y-46037143D01*
X176224524Y-46084762D01*
X176319762Y-46132381D01*
X176510239Y-46132381D01*
X176605477Y-46084762D01*
X176653096Y-46037143D01*
X176700715Y-45941905D01*
X176700715Y-45703810D01*
X176653096Y-45608571D01*
X176605477Y-45560952D01*
X176510239Y-45513333D01*
X176319762Y-45513333D01*
X176224524Y-45560952D01*
X176176905Y-45608571D01*
X176129286Y-45703810D01*
X140097143Y-120836666D02*
X140144762Y-120884285D01*
X140192381Y-121027142D01*
X140192381Y-121122380D01*
X140144762Y-121265238D01*
X140049524Y-121360476D01*
X139954286Y-121408095D01*
X139763810Y-121455714D01*
X139620952Y-121455714D01*
X139430476Y-121408095D01*
X139335238Y-121360476D01*
X139240000Y-121265238D01*
X139192381Y-121122380D01*
X139192381Y-121027142D01*
X139240000Y-120884285D01*
X139287619Y-120836666D01*
X139192381Y-120503333D02*
X139192381Y-119836666D01*
X140192381Y-120265238D01*
X140097143Y-133536666D02*
X140144762Y-133584285D01*
X140192381Y-133727142D01*
X140192381Y-133822380D01*
X140144762Y-133965238D01*
X140049524Y-134060476D01*
X139954286Y-134108095D01*
X139763810Y-134155714D01*
X139620952Y-134155714D01*
X139430476Y-134108095D01*
X139335238Y-134060476D01*
X139240000Y-133965238D01*
X139192381Y-133822380D01*
X139192381Y-133727142D01*
X139240000Y-133584285D01*
X139287619Y-133536666D01*
X139620952Y-132965238D02*
X139573333Y-133060476D01*
X139525714Y-133108095D01*
X139430476Y-133155714D01*
X139382857Y-133155714D01*
X139287619Y-133108095D01*
X139240000Y-133060476D01*
X139192381Y-132965238D01*
X139192381Y-132774761D01*
X139240000Y-132679523D01*
X139287619Y-132631904D01*
X139382857Y-132584285D01*
X139430476Y-132584285D01*
X139525714Y-132631904D01*
X139573333Y-132679523D01*
X139620952Y-132774761D01*
X139620952Y-132965238D01*
X139668571Y-133060476D01*
X139716190Y-133108095D01*
X139811429Y-133155714D01*
X140001905Y-133155714D01*
X140097143Y-133108095D01*
X140144762Y-133060476D01*
X140192381Y-132965238D01*
X140192381Y-132774761D01*
X140144762Y-132679523D01*
X140097143Y-132631904D01*
X140001905Y-132584285D01*
X139811429Y-132584285D01*
X139716190Y-132631904D01*
X139668571Y-132679523D01*
X139620952Y-132774761D01*
X180737143Y-120836666D02*
X180784762Y-120884285D01*
X180832381Y-121027142D01*
X180832381Y-121122380D01*
X180784762Y-121265238D01*
X180689524Y-121360476D01*
X180594286Y-121408095D01*
X180403810Y-121455714D01*
X180260952Y-121455714D01*
X180070476Y-121408095D01*
X179975238Y-121360476D01*
X179880000Y-121265238D01*
X179832381Y-121122380D01*
X179832381Y-121027142D01*
X179880000Y-120884285D01*
X179927619Y-120836666D01*
X180832381Y-120360476D02*
X180832381Y-120170000D01*
X180784762Y-120074761D01*
X180737143Y-120027142D01*
X180594286Y-119931904D01*
X180403810Y-119884285D01*
X180022857Y-119884285D01*
X179927619Y-119931904D01*
X179880000Y-119979523D01*
X179832381Y-120074761D01*
X179832381Y-120265238D01*
X179880000Y-120360476D01*
X179927619Y-120408095D01*
X180022857Y-120455714D01*
X180260952Y-120455714D01*
X180356190Y-120408095D01*
X180403810Y-120360476D01*
X180451429Y-120265238D01*
X180451429Y-120074761D01*
X180403810Y-119979523D01*
X180356190Y-119931904D01*
X180260952Y-119884285D01*
X180737143Y-108612857D02*
X180784762Y-108660476D01*
X180832381Y-108803333D01*
X180832381Y-108898571D01*
X180784762Y-109041429D01*
X180689524Y-109136667D01*
X180594286Y-109184286D01*
X180403810Y-109231905D01*
X180260952Y-109231905D01*
X180070476Y-109184286D01*
X179975238Y-109136667D01*
X179880000Y-109041429D01*
X179832381Y-108898571D01*
X179832381Y-108803333D01*
X179880000Y-108660476D01*
X179927619Y-108612857D01*
X180832381Y-107660476D02*
X180832381Y-108231905D01*
X180832381Y-107946191D02*
X179832381Y-107946191D01*
X179975238Y-108041429D01*
X180070476Y-108136667D01*
X180118095Y-108231905D01*
X179832381Y-107041429D02*
X179832381Y-106946190D01*
X179880000Y-106850952D01*
X179927619Y-106803333D01*
X180022857Y-106755714D01*
X180213333Y-106708095D01*
X180451429Y-106708095D01*
X180641905Y-106755714D01*
X180737143Y-106803333D01*
X180784762Y-106850952D01*
X180832381Y-106946190D01*
X180832381Y-107041429D01*
X180784762Y-107136667D01*
X180737143Y-107184286D01*
X180641905Y-107231905D01*
X180451429Y-107279524D01*
X180213333Y-107279524D01*
X180022857Y-107231905D01*
X179927619Y-107184286D01*
X179880000Y-107136667D01*
X179832381Y-107041429D01*
X172624762Y-118149619D02*
X172529524Y-118102000D01*
X172434286Y-118006762D01*
X172291429Y-117863905D01*
X172196190Y-117816286D01*
X172100952Y-117816286D01*
X172148571Y-118054381D02*
X172053333Y-118006762D01*
X171958095Y-117911524D01*
X171910476Y-117721048D01*
X171910476Y-117387714D01*
X171958095Y-117197238D01*
X172053333Y-117102000D01*
X172148571Y-117054381D01*
X172339048Y-117054381D01*
X172434286Y-117102000D01*
X172529524Y-117197238D01*
X172577143Y-117387714D01*
X172577143Y-117721048D01*
X172529524Y-117911524D01*
X172434286Y-118006762D01*
X172339048Y-118054381D01*
X172148571Y-118054381D01*
X173529524Y-118054381D02*
X172958095Y-118054381D01*
X173243809Y-118054381D02*
X173243809Y-117054381D01*
X173148571Y-117197238D01*
X173053333Y-117292476D01*
X172958095Y-117340095D01*
X172624762Y-143549619D02*
X172529524Y-143502000D01*
X172434286Y-143406762D01*
X172291429Y-143263905D01*
X172196190Y-143216286D01*
X172100952Y-143216286D01*
X172148571Y-143454381D02*
X172053333Y-143406762D01*
X171958095Y-143311524D01*
X171910476Y-143121048D01*
X171910476Y-142787714D01*
X171958095Y-142597238D01*
X172053333Y-142502000D01*
X172148571Y-142454381D01*
X172339048Y-142454381D01*
X172434286Y-142502000D01*
X172529524Y-142597238D01*
X172577143Y-142787714D01*
X172577143Y-143121048D01*
X172529524Y-143311524D01*
X172434286Y-143406762D01*
X172339048Y-143454381D01*
X172148571Y-143454381D01*
X172958095Y-142549619D02*
X173005714Y-142502000D01*
X173100952Y-142454381D01*
X173339048Y-142454381D01*
X173434286Y-142502000D01*
X173481905Y-142549619D01*
X173529524Y-142644857D01*
X173529524Y-142740095D01*
X173481905Y-142882952D01*
X172910476Y-143454381D01*
X173529524Y-143454381D01*
X131984762Y-118149619D02*
X131889524Y-118102000D01*
X131794286Y-118006762D01*
X131651429Y-117863905D01*
X131556190Y-117816286D01*
X131460952Y-117816286D01*
X131508571Y-118054381D02*
X131413333Y-118006762D01*
X131318095Y-117911524D01*
X131270476Y-117721048D01*
X131270476Y-117387714D01*
X131318095Y-117197238D01*
X131413333Y-117102000D01*
X131508571Y-117054381D01*
X131699048Y-117054381D01*
X131794286Y-117102000D01*
X131889524Y-117197238D01*
X131937143Y-117387714D01*
X131937143Y-117721048D01*
X131889524Y-117911524D01*
X131794286Y-118006762D01*
X131699048Y-118054381D01*
X131508571Y-118054381D01*
X132270476Y-117054381D02*
X132889524Y-117054381D01*
X132556190Y-117435333D01*
X132699048Y-117435333D01*
X132794286Y-117482952D01*
X132841905Y-117530571D01*
X132889524Y-117625810D01*
X132889524Y-117863905D01*
X132841905Y-117959143D01*
X132794286Y-118006762D01*
X132699048Y-118054381D01*
X132413333Y-118054381D01*
X132318095Y-118006762D01*
X132270476Y-117959143D01*
X131984762Y-143549619D02*
X131889524Y-143502000D01*
X131794286Y-143406762D01*
X131651429Y-143263905D01*
X131556190Y-143216286D01*
X131460952Y-143216286D01*
X131508571Y-143454381D02*
X131413333Y-143406762D01*
X131318095Y-143311524D01*
X131270476Y-143121048D01*
X131270476Y-142787714D01*
X131318095Y-142597238D01*
X131413333Y-142502000D01*
X131508571Y-142454381D01*
X131699048Y-142454381D01*
X131794286Y-142502000D01*
X131889524Y-142597238D01*
X131937143Y-142787714D01*
X131937143Y-143121048D01*
X131889524Y-143311524D01*
X131794286Y-143406762D01*
X131699048Y-143454381D01*
X131508571Y-143454381D01*
X132794286Y-142787714D02*
X132794286Y-143454381D01*
X132556190Y-142406762D02*
X132318095Y-143121048D01*
X132937143Y-143121048D01*
X172624762Y-105449619D02*
X172529524Y-105402000D01*
X172434286Y-105306762D01*
X172291429Y-105163905D01*
X172196190Y-105116286D01*
X172100952Y-105116286D01*
X172148571Y-105354381D02*
X172053333Y-105306762D01*
X171958095Y-105211524D01*
X171910476Y-105021048D01*
X171910476Y-104687714D01*
X171958095Y-104497238D01*
X172053333Y-104402000D01*
X172148571Y-104354381D01*
X172339048Y-104354381D01*
X172434286Y-104402000D01*
X172529524Y-104497238D01*
X172577143Y-104687714D01*
X172577143Y-105021048D01*
X172529524Y-105211524D01*
X172434286Y-105306762D01*
X172339048Y-105354381D01*
X172148571Y-105354381D01*
X173481905Y-104354381D02*
X173005714Y-104354381D01*
X172958095Y-104830571D01*
X173005714Y-104782952D01*
X173100952Y-104735333D01*
X173339048Y-104735333D01*
X173434286Y-104782952D01*
X173481905Y-104830571D01*
X173529524Y-104925810D01*
X173529524Y-105163905D01*
X173481905Y-105259143D01*
X173434286Y-105306762D01*
X173339048Y-105354381D01*
X173100952Y-105354381D01*
X173005714Y-105306762D01*
X172958095Y-105259143D01*
X172624762Y-130849619D02*
X172529524Y-130802000D01*
X172434286Y-130706762D01*
X172291429Y-130563905D01*
X172196190Y-130516286D01*
X172100952Y-130516286D01*
X172148571Y-130754381D02*
X172053333Y-130706762D01*
X171958095Y-130611524D01*
X171910476Y-130421048D01*
X171910476Y-130087714D01*
X171958095Y-129897238D01*
X172053333Y-129802000D01*
X172148571Y-129754381D01*
X172339048Y-129754381D01*
X172434286Y-129802000D01*
X172529524Y-129897238D01*
X172577143Y-130087714D01*
X172577143Y-130421048D01*
X172529524Y-130611524D01*
X172434286Y-130706762D01*
X172339048Y-130754381D01*
X172148571Y-130754381D01*
X173434286Y-129754381D02*
X173243809Y-129754381D01*
X173148571Y-129802000D01*
X173100952Y-129849619D01*
X173005714Y-129992476D01*
X172958095Y-130182952D01*
X172958095Y-130563905D01*
X173005714Y-130659143D01*
X173053333Y-130706762D01*
X173148571Y-130754381D01*
X173339048Y-130754381D01*
X173434286Y-130706762D01*
X173481905Y-130659143D01*
X173529524Y-130563905D01*
X173529524Y-130325810D01*
X173481905Y-130230571D01*
X173434286Y-130182952D01*
X173339048Y-130135333D01*
X173148571Y-130135333D01*
X173053333Y-130182952D01*
X173005714Y-130230571D01*
X172958095Y-130325810D01*
X131984762Y-105449619D02*
X131889524Y-105402000D01*
X131794286Y-105306762D01*
X131651429Y-105163905D01*
X131556190Y-105116286D01*
X131460952Y-105116286D01*
X131508571Y-105354381D02*
X131413333Y-105306762D01*
X131318095Y-105211524D01*
X131270476Y-105021048D01*
X131270476Y-104687714D01*
X131318095Y-104497238D01*
X131413333Y-104402000D01*
X131508571Y-104354381D01*
X131699048Y-104354381D01*
X131794286Y-104402000D01*
X131889524Y-104497238D01*
X131937143Y-104687714D01*
X131937143Y-105021048D01*
X131889524Y-105211524D01*
X131794286Y-105306762D01*
X131699048Y-105354381D01*
X131508571Y-105354381D01*
X132270476Y-104354381D02*
X132937143Y-104354381D01*
X132508571Y-105354381D01*
X131984762Y-130849619D02*
X131889524Y-130802000D01*
X131794286Y-130706762D01*
X131651429Y-130563905D01*
X131556190Y-130516286D01*
X131460952Y-130516286D01*
X131508571Y-130754381D02*
X131413333Y-130706762D01*
X131318095Y-130611524D01*
X131270476Y-130421048D01*
X131270476Y-130087714D01*
X131318095Y-129897238D01*
X131413333Y-129802000D01*
X131508571Y-129754381D01*
X131699048Y-129754381D01*
X131794286Y-129802000D01*
X131889524Y-129897238D01*
X131937143Y-130087714D01*
X131937143Y-130421048D01*
X131889524Y-130611524D01*
X131794286Y-130706762D01*
X131699048Y-130754381D01*
X131508571Y-130754381D01*
X132508571Y-130182952D02*
X132413333Y-130135333D01*
X132365714Y-130087714D01*
X132318095Y-129992476D01*
X132318095Y-129944857D01*
X132365714Y-129849619D01*
X132413333Y-129802000D01*
X132508571Y-129754381D01*
X132699048Y-129754381D01*
X132794286Y-129802000D01*
X132841905Y-129849619D01*
X132889524Y-129944857D01*
X132889524Y-129992476D01*
X132841905Y-130087714D01*
X132794286Y-130135333D01*
X132699048Y-130182952D01*
X132508571Y-130182952D01*
X132413333Y-130230571D01*
X132365714Y-130278190D01*
X132318095Y-130373429D01*
X132318095Y-130563905D01*
X132365714Y-130659143D01*
X132413333Y-130706762D01*
X132508571Y-130754381D01*
X132699048Y-130754381D01*
X132794286Y-130706762D01*
X132841905Y-130659143D01*
X132889524Y-130563905D01*
X132889524Y-130373429D01*
X132841905Y-130278190D01*
X132794286Y-130230571D01*
X132699048Y-130182952D01*
X125314414Y-87772501D02*
X124981080Y-87296310D01*
X124742985Y-87772501D02*
X124742985Y-86772501D01*
X125123938Y-86772501D01*
X125219176Y-86820120D01*
X125266795Y-86867739D01*
X125314414Y-86962977D01*
X125314414Y-87105834D01*
X125266795Y-87201072D01*
X125219176Y-87248691D01*
X125123938Y-87296310D01*
X124742985Y-87296310D01*
X126266795Y-87772501D02*
X125695366Y-87772501D01*
X125981080Y-87772501D02*
X125981080Y-86772501D01*
X125885842Y-86915358D01*
X125790604Y-87010596D01*
X125695366Y-87058215D01*
X150714414Y-87772501D02*
X150381080Y-87296310D01*
X150142985Y-87772501D02*
X150142985Y-86772501D01*
X150523938Y-86772501D01*
X150619176Y-86820120D01*
X150666795Y-86867739D01*
X150714414Y-86962977D01*
X150714414Y-87105834D01*
X150666795Y-87201072D01*
X150619176Y-87248691D01*
X150523938Y-87296310D01*
X150142985Y-87296310D01*
X151095366Y-86867739D02*
X151142985Y-86820120D01*
X151238223Y-86772501D01*
X151476319Y-86772501D01*
X151571557Y-86820120D01*
X151619176Y-86867739D01*
X151666795Y-86962977D01*
X151666795Y-87058215D01*
X151619176Y-87201072D01*
X151047747Y-87772501D01*
X151666795Y-87772501D01*
X201514414Y-87772501D02*
X201181080Y-87296310D01*
X200942985Y-87772501D02*
X200942985Y-86772501D01*
X201323938Y-86772501D01*
X201419176Y-86820120D01*
X201466795Y-86867739D01*
X201514414Y-86962977D01*
X201514414Y-87105834D01*
X201466795Y-87201072D01*
X201419176Y-87248691D01*
X201323938Y-87296310D01*
X200942985Y-87296310D01*
X201847747Y-86772501D02*
X202466795Y-86772501D01*
X202133461Y-87153453D01*
X202276319Y-87153453D01*
X202371557Y-87201072D01*
X202419176Y-87248691D01*
X202466795Y-87343930D01*
X202466795Y-87582025D01*
X202419176Y-87677263D01*
X202371557Y-87724882D01*
X202276319Y-87772501D01*
X201990604Y-87772501D01*
X201895366Y-87724882D01*
X201847747Y-87677263D01*
X247792501Y-102015586D02*
X247316310Y-102348920D01*
X247792501Y-102587015D02*
X246792501Y-102587015D01*
X246792501Y-102206062D01*
X246840120Y-102110824D01*
X246887739Y-102063205D01*
X246982977Y-102015586D01*
X247125834Y-102015586D01*
X247221072Y-102063205D01*
X247268691Y-102110824D01*
X247316310Y-102206062D01*
X247316310Y-102587015D01*
X247125834Y-101158443D02*
X247792501Y-101158443D01*
X246744882Y-101396539D02*
X247459168Y-101634634D01*
X247459168Y-101015586D01*
X226914414Y-87772501D02*
X226581080Y-87296310D01*
X226342985Y-87772501D02*
X226342985Y-86772501D01*
X226723938Y-86772501D01*
X226819176Y-86820120D01*
X226866795Y-86867739D01*
X226914414Y-86962977D01*
X226914414Y-87105834D01*
X226866795Y-87201072D01*
X226819176Y-87248691D01*
X226723938Y-87296310D01*
X226342985Y-87296310D01*
X227819176Y-86772501D02*
X227342985Y-86772501D01*
X227295366Y-87248691D01*
X227342985Y-87201072D01*
X227438223Y-87153453D01*
X227676319Y-87153453D01*
X227771557Y-87201072D01*
X227819176Y-87248691D01*
X227866795Y-87343930D01*
X227866795Y-87582025D01*
X227819176Y-87677263D01*
X227771557Y-87724882D01*
X227676319Y-87772501D01*
X227438223Y-87772501D01*
X227342985Y-87724882D01*
X227295366Y-87677263D01*
X252314414Y-87772501D02*
X251981080Y-87296310D01*
X251742985Y-87772501D02*
X251742985Y-86772501D01*
X252123938Y-86772501D01*
X252219176Y-86820120D01*
X252266795Y-86867739D01*
X252314414Y-86962977D01*
X252314414Y-87105834D01*
X252266795Y-87201072D01*
X252219176Y-87248691D01*
X252123938Y-87296310D01*
X251742985Y-87296310D01*
X253171557Y-86772501D02*
X252981080Y-86772501D01*
X252885842Y-86820120D01*
X252838223Y-86867739D01*
X252742985Y-87010596D01*
X252695366Y-87201072D01*
X252695366Y-87582025D01*
X252742985Y-87677263D01*
X252790604Y-87724882D01*
X252885842Y-87772501D01*
X253076319Y-87772501D01*
X253171557Y-87724882D01*
X253219176Y-87677263D01*
X253266795Y-87582025D01*
X253266795Y-87343930D01*
X253219176Y-87248691D01*
X253171557Y-87201072D01*
X253076319Y-87153453D01*
X252885842Y-87153453D01*
X252790604Y-87201072D01*
X252742985Y-87248691D01*
X252695366Y-87343930D01*
X150714414Y-130952501D02*
X150381080Y-130476310D01*
X150142985Y-130952501D02*
X150142985Y-129952501D01*
X150523938Y-129952501D01*
X150619176Y-130000120D01*
X150666795Y-130047739D01*
X150714414Y-130142977D01*
X150714414Y-130285834D01*
X150666795Y-130381072D01*
X150619176Y-130428691D01*
X150523938Y-130476310D01*
X150142985Y-130476310D01*
X151047747Y-129952501D02*
X151714414Y-129952501D01*
X151285842Y-130952501D01*
X176114414Y-87772501D02*
X175781080Y-87296310D01*
X175542985Y-87772501D02*
X175542985Y-86772501D01*
X175923938Y-86772501D01*
X176019176Y-86820120D01*
X176066795Y-86867739D01*
X176114414Y-86962977D01*
X176114414Y-87105834D01*
X176066795Y-87201072D01*
X176019176Y-87248691D01*
X175923938Y-87296310D01*
X175542985Y-87296310D01*
X176685842Y-87201072D02*
X176590604Y-87153453D01*
X176542985Y-87105834D01*
X176495366Y-87010596D01*
X176495366Y-86962977D01*
X176542985Y-86867739D01*
X176590604Y-86820120D01*
X176685842Y-86772501D01*
X176876319Y-86772501D01*
X176971557Y-86820120D01*
X177019176Y-86867739D01*
X177066795Y-86962977D01*
X177066795Y-87010596D01*
X177019176Y-87105834D01*
X176971557Y-87153453D01*
X176876319Y-87201072D01*
X176685842Y-87201072D01*
X176590604Y-87248691D01*
X176542985Y-87296310D01*
X176495366Y-87391549D01*
X176495366Y-87582025D01*
X176542985Y-87677263D01*
X176590604Y-87724882D01*
X176685842Y-87772501D01*
X176876319Y-87772501D01*
X176971557Y-87724882D01*
X177019176Y-87677263D01*
X177066795Y-87582025D01*
X177066795Y-87391549D01*
X177019176Y-87296310D01*
X176971557Y-87248691D01*
X176876319Y-87201072D01*
X206957381Y-138556905D02*
X207766905Y-138556905D01*
X207862143Y-138509286D01*
X207909762Y-138461667D01*
X207957381Y-138366429D01*
X207957381Y-138175952D01*
X207909762Y-138080714D01*
X207862143Y-138033095D01*
X207766905Y-137985476D01*
X206957381Y-137985476D01*
X207957381Y-136985476D02*
X207957381Y-137556905D01*
X207957381Y-137271191D02*
X206957381Y-137271191D01*
X207100238Y-137366429D01*
X207195476Y-137461667D01*
X207243095Y-137556905D01*
X146558095Y-42492381D02*
X146558095Y-43301905D01*
X146605714Y-43397143D01*
X146653333Y-43444762D01*
X146748571Y-43492381D01*
X146939048Y-43492381D01*
X147034286Y-43444762D01*
X147081905Y-43397143D01*
X147129524Y-43301905D01*
X147129524Y-42492381D01*
X147510476Y-42492381D02*
X148129524Y-42492381D01*
X147796190Y-42873333D01*
X147939048Y-42873333D01*
X148034286Y-42920952D01*
X148081905Y-42968571D01*
X148129524Y-43063810D01*
X148129524Y-43301905D01*
X148081905Y-43397143D01*
X148034286Y-43444762D01*
X147939048Y-43492381D01*
X147653333Y-43492381D01*
X147558095Y-43444762D01*
X147510476Y-43397143D01*
X197358095Y-42492381D02*
X197358095Y-43301905D01*
X197405714Y-43397143D01*
X197453333Y-43444762D01*
X197548571Y-43492381D01*
X197739048Y-43492381D01*
X197834286Y-43444762D01*
X197881905Y-43397143D01*
X197929524Y-43301905D01*
X197929524Y-42492381D01*
X198834286Y-42825714D02*
X198834286Y-43492381D01*
X198596190Y-42444762D02*
X198358095Y-43159048D01*
X198977143Y-43159048D01*
X202512381Y-104901905D02*
X203321905Y-104901905D01*
X203417143Y-104854286D01*
X203464762Y-104806667D01*
X203512381Y-104711429D01*
X203512381Y-104520952D01*
X203464762Y-104425714D01*
X203417143Y-104378095D01*
X203321905Y-104330476D01*
X202512381Y-104330476D01*
X202512381Y-103378095D02*
X202512381Y-103854286D01*
X202988571Y-103901905D01*
X202940952Y-103854286D01*
X202893333Y-103759048D01*
X202893333Y-103520952D01*
X202940952Y-103425714D01*
X202988571Y-103378095D01*
X203083810Y-103330476D01*
X203321905Y-103330476D01*
X203417143Y-103378095D01*
X203464762Y-103425714D01*
X203512381Y-103520952D01*
X203512381Y-103759048D01*
X203464762Y-103854286D01*
X203417143Y-103901905D01*
X222758095Y-42492381D02*
X222758095Y-43301905D01*
X222805714Y-43397143D01*
X222853333Y-43444762D01*
X222948571Y-43492381D01*
X223139048Y-43492381D01*
X223234286Y-43444762D01*
X223281905Y-43397143D01*
X223329524Y-43301905D01*
X223329524Y-42492381D01*
X224234286Y-42492381D02*
X224043809Y-42492381D01*
X223948571Y-42540000D01*
X223900952Y-42587619D01*
X223805714Y-42730476D01*
X223758095Y-42920952D01*
X223758095Y-43301905D01*
X223805714Y-43397143D01*
X223853333Y-43444762D01*
X223948571Y-43492381D01*
X224139048Y-43492381D01*
X224234286Y-43444762D01*
X224281905Y-43397143D01*
X224329524Y-43301905D01*
X224329524Y-43063810D01*
X224281905Y-42968571D01*
X224234286Y-42920952D01*
X224139048Y-42873333D01*
X223948571Y-42873333D01*
X223853333Y-42920952D01*
X223805714Y-42968571D01*
X223758095Y-43063810D01*
X248158095Y-42492381D02*
X248158095Y-43301905D01*
X248205714Y-43397143D01*
X248253333Y-43444762D01*
X248348571Y-43492381D01*
X248539048Y-43492381D01*
X248634286Y-43444762D01*
X248681905Y-43397143D01*
X248729524Y-43301905D01*
X248729524Y-42492381D01*
X249110476Y-42492381D02*
X249777143Y-42492381D01*
X249348571Y-43492381D01*
X201307143Y-46037143D02*
X201259524Y-46084762D01*
X201116667Y-46132381D01*
X201021429Y-46132381D01*
X200878571Y-46084762D01*
X200783333Y-45989524D01*
X200735714Y-45894286D01*
X200688095Y-45703810D01*
X200688095Y-45560952D01*
X200735714Y-45370476D01*
X200783333Y-45275238D01*
X200878571Y-45180000D01*
X201021429Y-45132381D01*
X201116667Y-45132381D01*
X201259524Y-45180000D01*
X201307143Y-45227619D01*
X202259524Y-46132381D02*
X201688095Y-46132381D01*
X201973809Y-46132381D02*
X201973809Y-45132381D01*
X201878571Y-45275238D01*
X201783333Y-45370476D01*
X201688095Y-45418095D01*
X203211905Y-46132381D02*
X202640476Y-46132381D01*
X202926190Y-46132381D02*
X202926190Y-45132381D01*
X202830952Y-45275238D01*
X202735714Y-45370476D01*
X202640476Y-45418095D01*
X125107143Y-46037143D02*
X125059524Y-46084762D01*
X124916667Y-46132381D01*
X124821429Y-46132381D01*
X124678571Y-46084762D01*
X124583333Y-45989524D01*
X124535714Y-45894286D01*
X124488095Y-45703810D01*
X124488095Y-45560952D01*
X124535714Y-45370476D01*
X124583333Y-45275238D01*
X124678571Y-45180000D01*
X124821429Y-45132381D01*
X124916667Y-45132381D01*
X125059524Y-45180000D01*
X125107143Y-45227619D01*
X126059524Y-46132381D02*
X125488095Y-46132381D01*
X125773809Y-46132381D02*
X125773809Y-45132381D01*
X125678571Y-45275238D01*
X125583333Y-45370476D01*
X125488095Y-45418095D01*
X126440476Y-45227619D02*
X126488095Y-45180000D01*
X126583333Y-45132381D01*
X126821429Y-45132381D01*
X126916667Y-45180000D01*
X126964286Y-45227619D01*
X127011905Y-45322857D01*
X127011905Y-45418095D01*
X126964286Y-45560952D01*
X126392857Y-46132381D01*
X127011905Y-46132381D01*
X150507143Y-46037143D02*
X150459524Y-46084762D01*
X150316667Y-46132381D01*
X150221429Y-46132381D01*
X150078571Y-46084762D01*
X149983333Y-45989524D01*
X149935714Y-45894286D01*
X149888095Y-45703810D01*
X149888095Y-45560952D01*
X149935714Y-45370476D01*
X149983333Y-45275238D01*
X150078571Y-45180000D01*
X150221429Y-45132381D01*
X150316667Y-45132381D01*
X150459524Y-45180000D01*
X150507143Y-45227619D01*
X151459524Y-46132381D02*
X150888095Y-46132381D01*
X151173809Y-46132381D02*
X151173809Y-45132381D01*
X151078571Y-45275238D01*
X150983333Y-45370476D01*
X150888095Y-45418095D01*
X151792857Y-45132381D02*
X152411905Y-45132381D01*
X152078571Y-45513333D01*
X152221429Y-45513333D01*
X152316667Y-45560952D01*
X152364286Y-45608571D01*
X152411905Y-45703810D01*
X152411905Y-45941905D01*
X152364286Y-46037143D01*
X152316667Y-46084762D01*
X152221429Y-46132381D01*
X151935714Y-46132381D01*
X151840476Y-46084762D01*
X151792857Y-46037143D01*
X206057143Y-100952857D02*
X206104762Y-101000476D01*
X206152381Y-101143333D01*
X206152381Y-101238571D01*
X206104762Y-101381429D01*
X206009524Y-101476667D01*
X205914286Y-101524286D01*
X205723810Y-101571905D01*
X205580952Y-101571905D01*
X205390476Y-101524286D01*
X205295238Y-101476667D01*
X205200000Y-101381429D01*
X205152381Y-101238571D01*
X205152381Y-101143333D01*
X205200000Y-101000476D01*
X205247619Y-100952857D01*
X206152381Y-100000476D02*
X206152381Y-100571905D01*
X206152381Y-100286191D02*
X205152381Y-100286191D01*
X205295238Y-100381429D01*
X205390476Y-100476667D01*
X205438095Y-100571905D01*
X205485714Y-99143333D02*
X206152381Y-99143333D01*
X205104762Y-99381429D02*
X205819048Y-99619524D01*
X205819048Y-99000476D01*
X226707143Y-46037143D02*
X226659524Y-46084762D01*
X226516667Y-46132381D01*
X226421429Y-46132381D01*
X226278571Y-46084762D01*
X226183333Y-45989524D01*
X226135714Y-45894286D01*
X226088095Y-45703810D01*
X226088095Y-45560952D01*
X226135714Y-45370476D01*
X226183333Y-45275238D01*
X226278571Y-45180000D01*
X226421429Y-45132381D01*
X226516667Y-45132381D01*
X226659524Y-45180000D01*
X226707143Y-45227619D01*
X227659524Y-46132381D02*
X227088095Y-46132381D01*
X227373809Y-46132381D02*
X227373809Y-45132381D01*
X227278571Y-45275238D01*
X227183333Y-45370476D01*
X227088095Y-45418095D01*
X228564286Y-45132381D02*
X228088095Y-45132381D01*
X228040476Y-45608571D01*
X228088095Y-45560952D01*
X228183333Y-45513333D01*
X228421429Y-45513333D01*
X228516667Y-45560952D01*
X228564286Y-45608571D01*
X228611905Y-45703810D01*
X228611905Y-45941905D01*
X228564286Y-46037143D01*
X228516667Y-46084762D01*
X228421429Y-46132381D01*
X228183333Y-46132381D01*
X228088095Y-46084762D01*
X228040476Y-46037143D01*
X252107143Y-46037143D02*
X252059524Y-46084762D01*
X251916667Y-46132381D01*
X251821429Y-46132381D01*
X251678571Y-46084762D01*
X251583333Y-45989524D01*
X251535714Y-45894286D01*
X251488095Y-45703810D01*
X251488095Y-45560952D01*
X251535714Y-45370476D01*
X251583333Y-45275238D01*
X251678571Y-45180000D01*
X251821429Y-45132381D01*
X251916667Y-45132381D01*
X252059524Y-45180000D01*
X252107143Y-45227619D01*
X253059524Y-46132381D02*
X252488095Y-46132381D01*
X252773809Y-46132381D02*
X252773809Y-45132381D01*
X252678571Y-45275238D01*
X252583333Y-45370476D01*
X252488095Y-45418095D01*
X253916667Y-45132381D02*
X253726190Y-45132381D01*
X253630952Y-45180000D01*
X253583333Y-45227619D01*
X253488095Y-45370476D01*
X253440476Y-45560952D01*
X253440476Y-45941905D01*
X253488095Y-46037143D01*
X253535714Y-46084762D01*
X253630952Y-46132381D01*
X253821429Y-46132381D01*
X253916667Y-46084762D01*
X253964286Y-46037143D01*
X254011905Y-45941905D01*
X254011905Y-45703810D01*
X253964286Y-45608571D01*
X253916667Y-45560952D01*
X253821429Y-45513333D01*
X253630952Y-45513333D01*
X253535714Y-45560952D01*
X253488095Y-45608571D01*
X253440476Y-45703810D01*
X140097143Y-146712857D02*
X140144762Y-146760476D01*
X140192381Y-146903333D01*
X140192381Y-146998571D01*
X140144762Y-147141429D01*
X140049524Y-147236667D01*
X139954286Y-147284286D01*
X139763810Y-147331905D01*
X139620952Y-147331905D01*
X139430476Y-147284286D01*
X139335238Y-147236667D01*
X139240000Y-147141429D01*
X139192381Y-146998571D01*
X139192381Y-146903333D01*
X139240000Y-146760476D01*
X139287619Y-146712857D01*
X140192381Y-145760476D02*
X140192381Y-146331905D01*
X140192381Y-146046191D02*
X139192381Y-146046191D01*
X139335238Y-146141429D01*
X139430476Y-146236667D01*
X139478095Y-146331905D01*
X139192381Y-145427143D02*
X139192381Y-144760476D01*
X140192381Y-145189048D01*
X221377143Y-123217857D02*
X221424762Y-123265476D01*
X221472381Y-123408333D01*
X221472381Y-123503571D01*
X221424762Y-123646429D01*
X221329524Y-123741667D01*
X221234286Y-123789286D01*
X221043810Y-123836905D01*
X220900952Y-123836905D01*
X220710476Y-123789286D01*
X220615238Y-123741667D01*
X220520000Y-123646429D01*
X220472381Y-123503571D01*
X220472381Y-123408333D01*
X220520000Y-123265476D01*
X220567619Y-123217857D01*
X221472381Y-122265476D02*
X221472381Y-122836905D01*
X221472381Y-122551191D02*
X220472381Y-122551191D01*
X220615238Y-122646429D01*
X220710476Y-122741667D01*
X220758095Y-122836905D01*
X220900952Y-121694048D02*
X220853333Y-121789286D01*
X220805714Y-121836905D01*
X220710476Y-121884524D01*
X220662857Y-121884524D01*
X220567619Y-121836905D01*
X220520000Y-121789286D01*
X220472381Y-121694048D01*
X220472381Y-121503571D01*
X220520000Y-121408333D01*
X220567619Y-121360714D01*
X220662857Y-121313095D01*
X220710476Y-121313095D01*
X220805714Y-121360714D01*
X220853333Y-121408333D01*
X220900952Y-121503571D01*
X220900952Y-121694048D01*
X220948571Y-121789286D01*
X220996190Y-121836905D01*
X221091429Y-121884524D01*
X221281905Y-121884524D01*
X221377143Y-121836905D01*
X221424762Y-121789286D01*
X221472381Y-121694048D01*
X221472381Y-121503571D01*
X221424762Y-121408333D01*
X221377143Y-121360714D01*
X221281905Y-121313095D01*
X221091429Y-121313095D01*
X220996190Y-121360714D01*
X220948571Y-121408333D01*
X220900952Y-121503571D01*
X121158095Y-42492381D02*
X121158095Y-43301905D01*
X121205714Y-43397143D01*
X121253333Y-43444762D01*
X121348571Y-43492381D01*
X121539048Y-43492381D01*
X121634286Y-43444762D01*
X121681905Y-43397143D01*
X121729524Y-43301905D01*
X121729524Y-42492381D01*
X122158095Y-42587619D02*
X122205714Y-42540000D01*
X122300952Y-42492381D01*
X122539048Y-42492381D01*
X122634286Y-42540000D01*
X122681905Y-42587619D01*
X122729524Y-42682857D01*
X122729524Y-42778095D01*
X122681905Y-42920952D01*
X122110476Y-43492381D01*
X122729524Y-43492381D01*
X109668334Y-63262143D02*
X109620715Y-63309762D01*
X109477858Y-63357381D01*
X109382620Y-63357381D01*
X109239762Y-63309762D01*
X109144524Y-63214524D01*
X109096905Y-63119286D01*
X109049286Y-62928810D01*
X109049286Y-62785952D01*
X109096905Y-62595476D01*
X109144524Y-62500238D01*
X109239762Y-62405000D01*
X109382620Y-62357381D01*
X109477858Y-62357381D01*
X109620715Y-62405000D01*
X109668334Y-62452619D01*
X110620715Y-63357381D02*
X110049286Y-63357381D01*
X110335000Y-63357381D02*
X110335000Y-62357381D01*
X110239762Y-62500238D01*
X110144524Y-62595476D01*
X110049286Y-62643095D01*
X216983334Y-119112143D02*
X216935715Y-119159762D01*
X216792858Y-119207381D01*
X216697620Y-119207381D01*
X216554762Y-119159762D01*
X216459524Y-119064524D01*
X216411905Y-118969286D01*
X216364286Y-118778810D01*
X216364286Y-118635952D01*
X216411905Y-118445476D01*
X216459524Y-118350238D01*
X216554762Y-118255000D01*
X216697620Y-118207381D01*
X216792858Y-118207381D01*
X216935715Y-118255000D01*
X216983334Y-118302619D01*
X217316667Y-118207381D02*
X217935715Y-118207381D01*
X217602381Y-118588333D01*
X217745239Y-118588333D01*
X217840477Y-118635952D01*
X217888096Y-118683571D01*
X217935715Y-118778810D01*
X217935715Y-119016905D01*
X217888096Y-119112143D01*
X217840477Y-119159762D01*
X217745239Y-119207381D01*
X217459524Y-119207381D01*
X217364286Y-119159762D01*
X217316667Y-119112143D01*
X146558095Y-85672381D02*
X146558095Y-86481905D01*
X146605714Y-86577143D01*
X146653333Y-86624762D01*
X146748571Y-86672381D01*
X146939048Y-86672381D01*
X147034286Y-86624762D01*
X147081905Y-86577143D01*
X147129524Y-86481905D01*
X147129524Y-85672381D01*
X147653333Y-86672381D02*
X147843809Y-86672381D01*
X147939048Y-86624762D01*
X147986667Y-86577143D01*
X148081905Y-86434286D01*
X148129524Y-86243810D01*
X148129524Y-85862857D01*
X148081905Y-85767619D01*
X148034286Y-85720000D01*
X147939048Y-85672381D01*
X147748571Y-85672381D01*
X147653333Y-85720000D01*
X147605714Y-85767619D01*
X147558095Y-85862857D01*
X147558095Y-86100952D01*
X147605714Y-86196190D01*
X147653333Y-86243810D01*
X147748571Y-86291429D01*
X147939048Y-86291429D01*
X148034286Y-86243810D01*
X148081905Y-86196190D01*
X148129524Y-86100952D01*
X171481905Y-42492381D02*
X171481905Y-43301905D01*
X171529524Y-43397143D01*
X171577143Y-43444762D01*
X171672381Y-43492381D01*
X171862858Y-43492381D01*
X171958096Y-43444762D01*
X172005715Y-43397143D01*
X172053334Y-43301905D01*
X172053334Y-42492381D01*
X173053334Y-43492381D02*
X172481905Y-43492381D01*
X172767619Y-43492381D02*
X172767619Y-42492381D01*
X172672381Y-42635238D01*
X172577143Y-42730476D01*
X172481905Y-42778095D01*
X173672381Y-42492381D02*
X173767620Y-42492381D01*
X173862858Y-42540000D01*
X173910477Y-42587619D01*
X173958096Y-42682857D01*
X174005715Y-42873333D01*
X174005715Y-43111429D01*
X173958096Y-43301905D01*
X173910477Y-43397143D01*
X173862858Y-43444762D01*
X173767620Y-43492381D01*
X173672381Y-43492381D01*
X173577143Y-43444762D01*
X173529524Y-43397143D01*
X173481905Y-43301905D01*
X173434286Y-43111429D01*
X173434286Y-42873333D01*
X173481905Y-42682857D01*
X173529524Y-42587619D01*
X173577143Y-42540000D01*
X173672381Y-42492381D01*
X224131429Y-138402143D02*
X224345715Y-138473571D01*
X224702858Y-138473571D01*
X224845715Y-138402143D01*
X224917144Y-138330714D01*
X224988572Y-138187857D01*
X224988572Y-138045000D01*
X224917144Y-137902143D01*
X224845715Y-137830714D01*
X224702858Y-137759286D01*
X224417144Y-137687857D01*
X224274286Y-137616429D01*
X224202858Y-137545000D01*
X224131429Y-137402143D01*
X224131429Y-137259286D01*
X224202858Y-137116429D01*
X224274286Y-137045000D01*
X224417144Y-136973571D01*
X224774286Y-136973571D01*
X224988572Y-137045000D01*
X225631429Y-138473571D02*
X225631429Y-136973571D01*
X225631429Y-137687857D02*
X226488572Y-137687857D01*
X226488572Y-138473571D02*
X226488572Y-136973571D01*
X227988572Y-138473571D02*
X227131429Y-138473571D01*
X227560001Y-138473571D02*
X227560001Y-136973571D01*
X227417144Y-137187857D01*
X227274286Y-137330714D01*
X227131429Y-137402143D01*
X200580952Y-118149667D02*
X201057143Y-118149667D01*
X200485714Y-118435381D02*
X200819047Y-117435381D01*
X201152381Y-118435381D01*
X201485714Y-118435381D02*
X201485714Y-117435381D01*
X202057143Y-118435381D01*
X202057143Y-117435381D01*
X202485714Y-118149667D02*
X202961905Y-118149667D01*
X202390476Y-118435381D02*
X202723809Y-117435381D01*
X203057143Y-118435381D01*
X203866667Y-118435381D02*
X203390476Y-118435381D01*
X203390476Y-117435381D01*
X204390476Y-117435381D02*
X204580953Y-117435381D01*
X204676191Y-117483000D01*
X204771429Y-117578238D01*
X204819048Y-117768714D01*
X204819048Y-118102048D01*
X204771429Y-118292524D01*
X204676191Y-118387762D01*
X204580953Y-118435381D01*
X204390476Y-118435381D01*
X204295238Y-118387762D01*
X204200000Y-118292524D01*
X204152381Y-118102048D01*
X204152381Y-117768714D01*
X204200000Y-117578238D01*
X204295238Y-117483000D01*
X204390476Y-117435381D01*
X205771429Y-117483000D02*
X205676191Y-117435381D01*
X205533334Y-117435381D01*
X205390476Y-117483000D01*
X205295238Y-117578238D01*
X205247619Y-117673476D01*
X205200000Y-117863952D01*
X205200000Y-118006810D01*
X205247619Y-118197286D01*
X205295238Y-118292524D01*
X205390476Y-118387762D01*
X205533334Y-118435381D01*
X205628572Y-118435381D01*
X205771429Y-118387762D01*
X205819048Y-118340143D01*
X205819048Y-118006810D01*
X205628572Y-118006810D01*
X197016667Y-116649286D02*
X197016667Y-116173095D01*
X197302381Y-116744524D02*
X196302381Y-116411191D01*
X197302381Y-116077857D01*
X197302381Y-115744524D02*
X196302381Y-115744524D01*
X196302381Y-115506429D01*
X196350000Y-115363571D01*
X196445238Y-115268333D01*
X196540476Y-115220714D01*
X196730952Y-115173095D01*
X196873810Y-115173095D01*
X197064286Y-115220714D01*
X197159524Y-115268333D01*
X197254762Y-115363571D01*
X197302381Y-115506429D01*
X197302381Y-115744524D01*
X197207143Y-114173095D02*
X197254762Y-114220714D01*
X197302381Y-114363571D01*
X197302381Y-114458809D01*
X197254762Y-114601667D01*
X197159524Y-114696905D01*
X197064286Y-114744524D01*
X196873810Y-114792143D01*
X196730952Y-114792143D01*
X196540476Y-114744524D01*
X196445238Y-114696905D01*
X196350000Y-114601667D01*
X196302381Y-114458809D01*
X196302381Y-114363571D01*
X196350000Y-114220714D01*
X196397619Y-114173095D01*
X196302381Y-113268333D02*
X196302381Y-113744524D01*
X196778571Y-113792143D01*
X196730952Y-113744524D01*
X196683333Y-113649286D01*
X196683333Y-113411190D01*
X196730952Y-113315952D01*
X196778571Y-113268333D01*
X196873810Y-113220714D01*
X197111905Y-113220714D01*
X197207143Y-113268333D01*
X197254762Y-113315952D01*
X197302381Y-113411190D01*
X197302381Y-113649286D01*
X197254762Y-113744524D01*
X197207143Y-113792143D01*
X199556667Y-116649286D02*
X199556667Y-116173095D01*
X199842381Y-116744524D02*
X198842381Y-116411191D01*
X199842381Y-116077857D01*
X199842381Y-115744524D02*
X198842381Y-115744524D01*
X198842381Y-115506429D01*
X198890000Y-115363571D01*
X198985238Y-115268333D01*
X199080476Y-115220714D01*
X199270952Y-115173095D01*
X199413810Y-115173095D01*
X199604286Y-115220714D01*
X199699524Y-115268333D01*
X199794762Y-115363571D01*
X199842381Y-115506429D01*
X199842381Y-115744524D01*
X199747143Y-114173095D02*
X199794762Y-114220714D01*
X199842381Y-114363571D01*
X199842381Y-114458809D01*
X199794762Y-114601667D01*
X199699524Y-114696905D01*
X199604286Y-114744524D01*
X199413810Y-114792143D01*
X199270952Y-114792143D01*
X199080476Y-114744524D01*
X198985238Y-114696905D01*
X198890000Y-114601667D01*
X198842381Y-114458809D01*
X198842381Y-114363571D01*
X198890000Y-114220714D01*
X198937619Y-114173095D01*
X199175714Y-113315952D02*
X199842381Y-113315952D01*
X198794762Y-113554048D02*
X199509048Y-113792143D01*
X199509048Y-113173095D01*
X202096667Y-116649286D02*
X202096667Y-116173095D01*
X202382381Y-116744524D02*
X201382381Y-116411191D01*
X202382381Y-116077857D01*
X202382381Y-115744524D02*
X201382381Y-115744524D01*
X201382381Y-115506429D01*
X201430000Y-115363571D01*
X201525238Y-115268333D01*
X201620476Y-115220714D01*
X201810952Y-115173095D01*
X201953810Y-115173095D01*
X202144286Y-115220714D01*
X202239524Y-115268333D01*
X202334762Y-115363571D01*
X202382381Y-115506429D01*
X202382381Y-115744524D01*
X202287143Y-114173095D02*
X202334762Y-114220714D01*
X202382381Y-114363571D01*
X202382381Y-114458809D01*
X202334762Y-114601667D01*
X202239524Y-114696905D01*
X202144286Y-114744524D01*
X201953810Y-114792143D01*
X201810952Y-114792143D01*
X201620476Y-114744524D01*
X201525238Y-114696905D01*
X201430000Y-114601667D01*
X201382381Y-114458809D01*
X201382381Y-114363571D01*
X201430000Y-114220714D01*
X201477619Y-114173095D01*
X201382381Y-113839762D02*
X201382381Y-113220714D01*
X201763333Y-113554048D01*
X201763333Y-113411190D01*
X201810952Y-113315952D01*
X201858571Y-113268333D01*
X201953810Y-113220714D01*
X202191905Y-113220714D01*
X202287143Y-113268333D01*
X202334762Y-113315952D01*
X202382381Y-113411190D01*
X202382381Y-113696905D01*
X202334762Y-113792143D01*
X202287143Y-113839762D01*
X204636667Y-116649286D02*
X204636667Y-116173095D01*
X204922381Y-116744524D02*
X203922381Y-116411191D01*
X204922381Y-116077857D01*
X204922381Y-115744524D02*
X203922381Y-115744524D01*
X203922381Y-115506429D01*
X203970000Y-115363571D01*
X204065238Y-115268333D01*
X204160476Y-115220714D01*
X204350952Y-115173095D01*
X204493810Y-115173095D01*
X204684286Y-115220714D01*
X204779524Y-115268333D01*
X204874762Y-115363571D01*
X204922381Y-115506429D01*
X204922381Y-115744524D01*
X204827143Y-114173095D02*
X204874762Y-114220714D01*
X204922381Y-114363571D01*
X204922381Y-114458809D01*
X204874762Y-114601667D01*
X204779524Y-114696905D01*
X204684286Y-114744524D01*
X204493810Y-114792143D01*
X204350952Y-114792143D01*
X204160476Y-114744524D01*
X204065238Y-114696905D01*
X203970000Y-114601667D01*
X203922381Y-114458809D01*
X203922381Y-114363571D01*
X203970000Y-114220714D01*
X204017619Y-114173095D01*
X204017619Y-113792143D02*
X203970000Y-113744524D01*
X203922381Y-113649286D01*
X203922381Y-113411190D01*
X203970000Y-113315952D01*
X204017619Y-113268333D01*
X204112857Y-113220714D01*
X204208095Y-113220714D01*
X204350952Y-113268333D01*
X204922381Y-113839762D01*
X204922381Y-113220714D01*
X207176667Y-116649286D02*
X207176667Y-116173095D01*
X207462381Y-116744524D02*
X206462381Y-116411191D01*
X207462381Y-116077857D01*
X207462381Y-115744524D02*
X206462381Y-115744524D01*
X206462381Y-115506429D01*
X206510000Y-115363571D01*
X206605238Y-115268333D01*
X206700476Y-115220714D01*
X206890952Y-115173095D01*
X207033810Y-115173095D01*
X207224286Y-115220714D01*
X207319524Y-115268333D01*
X207414762Y-115363571D01*
X207462381Y-115506429D01*
X207462381Y-115744524D01*
X207367143Y-114173095D02*
X207414762Y-114220714D01*
X207462381Y-114363571D01*
X207462381Y-114458809D01*
X207414762Y-114601667D01*
X207319524Y-114696905D01*
X207224286Y-114744524D01*
X207033810Y-114792143D01*
X206890952Y-114792143D01*
X206700476Y-114744524D01*
X206605238Y-114696905D01*
X206510000Y-114601667D01*
X206462381Y-114458809D01*
X206462381Y-114363571D01*
X206510000Y-114220714D01*
X206557619Y-114173095D01*
X207462381Y-113220714D02*
X207462381Y-113792143D01*
X207462381Y-113506429D02*
X206462381Y-113506429D01*
X206605238Y-113601667D01*
X206700476Y-113696905D01*
X206748095Y-113792143D01*
X209716667Y-116649286D02*
X209716667Y-116173095D01*
X210002381Y-116744524D02*
X209002381Y-116411191D01*
X210002381Y-116077857D01*
X210002381Y-115744524D02*
X209002381Y-115744524D01*
X209002381Y-115506429D01*
X209050000Y-115363571D01*
X209145238Y-115268333D01*
X209240476Y-115220714D01*
X209430952Y-115173095D01*
X209573810Y-115173095D01*
X209764286Y-115220714D01*
X209859524Y-115268333D01*
X209954762Y-115363571D01*
X210002381Y-115506429D01*
X210002381Y-115744524D01*
X209907143Y-114173095D02*
X209954762Y-114220714D01*
X210002381Y-114363571D01*
X210002381Y-114458809D01*
X209954762Y-114601667D01*
X209859524Y-114696905D01*
X209764286Y-114744524D01*
X209573810Y-114792143D01*
X209430952Y-114792143D01*
X209240476Y-114744524D01*
X209145238Y-114696905D01*
X209050000Y-114601667D01*
X209002381Y-114458809D01*
X209002381Y-114363571D01*
X209050000Y-114220714D01*
X209097619Y-114173095D01*
X209002381Y-113554048D02*
X209002381Y-113458809D01*
X209050000Y-113363571D01*
X209097619Y-113315952D01*
X209192857Y-113268333D01*
X209383333Y-113220714D01*
X209621429Y-113220714D01*
X209811905Y-113268333D01*
X209907143Y-113315952D01*
X209954762Y-113363571D01*
X210002381Y-113458809D01*
X210002381Y-113554048D01*
X209954762Y-113649286D01*
X209907143Y-113696905D01*
X209811905Y-113744524D01*
X209621429Y-113792143D01*
X209383333Y-113792143D01*
X209192857Y-113744524D01*
X209097619Y-113696905D01*
X209050000Y-113649286D01*
X209002381Y-113554048D01*
X214082381Y-115522238D02*
X215082381Y-115188905D01*
X214082381Y-114855571D01*
X215082381Y-114522238D02*
X214082381Y-114522238D01*
X215082381Y-114046048D02*
X214082381Y-114046048D01*
X215082381Y-113474619D01*
X214082381Y-113474619D01*
X216670000Y-115442904D02*
X216622381Y-115538142D01*
X216622381Y-115680999D01*
X216670000Y-115823857D01*
X216765238Y-115919095D01*
X216860476Y-115966714D01*
X217050952Y-116014333D01*
X217193810Y-116014333D01*
X217384286Y-115966714D01*
X217479524Y-115919095D01*
X217574762Y-115823857D01*
X217622381Y-115680999D01*
X217622381Y-115585761D01*
X217574762Y-115442904D01*
X217527143Y-115395285D01*
X217193810Y-115395285D01*
X217193810Y-115585761D01*
X217622381Y-114966714D02*
X216622381Y-114966714D01*
X217622381Y-114395285D01*
X216622381Y-114395285D01*
X217622381Y-113919095D02*
X216622381Y-113919095D01*
X216622381Y-113681000D01*
X216670000Y-113538142D01*
X216765238Y-113442904D01*
X216860476Y-113395285D01*
X217050952Y-113347666D01*
X217193810Y-113347666D01*
X217384286Y-113395285D01*
X217479524Y-113442904D01*
X217574762Y-113538142D01*
X217622381Y-113681000D01*
X217622381Y-113919095D01*
X219210000Y-115442904D02*
X219162381Y-115538142D01*
X219162381Y-115680999D01*
X219210000Y-115823857D01*
X219305238Y-115919095D01*
X219400476Y-115966714D01*
X219590952Y-116014333D01*
X219733810Y-116014333D01*
X219924286Y-115966714D01*
X220019524Y-115919095D01*
X220114762Y-115823857D01*
X220162381Y-115680999D01*
X220162381Y-115585761D01*
X220114762Y-115442904D01*
X220067143Y-115395285D01*
X219733810Y-115395285D01*
X219733810Y-115585761D01*
X220162381Y-114966714D02*
X219162381Y-114966714D01*
X220162381Y-114395285D01*
X219162381Y-114395285D01*
X220162381Y-113919095D02*
X219162381Y-113919095D01*
X219162381Y-113681000D01*
X219210000Y-113538142D01*
X219305238Y-113442904D01*
X219400476Y-113395285D01*
X219590952Y-113347666D01*
X219733810Y-113347666D01*
X219924286Y-113395285D01*
X220019524Y-113442904D01*
X220114762Y-113538142D01*
X220162381Y-113681000D01*
X220162381Y-113919095D01*
X221702381Y-114363476D02*
X221702381Y-114839667D01*
X222178571Y-114887286D01*
X222130952Y-114839667D01*
X222083333Y-114744429D01*
X222083333Y-114506333D01*
X222130952Y-114411095D01*
X222178571Y-114363476D01*
X222273810Y-114315857D01*
X222511905Y-114315857D01*
X222607143Y-114363476D01*
X222654762Y-114411095D01*
X222702381Y-114506333D01*
X222702381Y-114744429D01*
X222654762Y-114839667D01*
X222607143Y-114887286D01*
X221702381Y-114030143D02*
X222702381Y-113696810D01*
X221702381Y-113363476D01*
X224242381Y-116411190D02*
X224242381Y-115792142D01*
X224623333Y-116125476D01*
X224623333Y-115982618D01*
X224670952Y-115887380D01*
X224718571Y-115839761D01*
X224813810Y-115792142D01*
X225051905Y-115792142D01*
X225147143Y-115839761D01*
X225194762Y-115887380D01*
X225242381Y-115982618D01*
X225242381Y-116268333D01*
X225194762Y-116363571D01*
X225147143Y-116411190D01*
X225147143Y-115363571D02*
X225194762Y-115315952D01*
X225242381Y-115363571D01*
X225194762Y-115411190D01*
X225147143Y-115363571D01*
X225242381Y-115363571D01*
X224242381Y-114982619D02*
X224242381Y-114363571D01*
X224623333Y-114696905D01*
X224623333Y-114554047D01*
X224670952Y-114458809D01*
X224718571Y-114411190D01*
X224813810Y-114363571D01*
X225051905Y-114363571D01*
X225147143Y-114411190D01*
X225194762Y-114458809D01*
X225242381Y-114554047D01*
X225242381Y-114839762D01*
X225194762Y-114935000D01*
X225147143Y-114982619D01*
X224242381Y-114077857D02*
X225242381Y-113744524D01*
X224242381Y-113411190D01*
X227782381Y-114974619D02*
X227306190Y-115307953D01*
X227782381Y-115546048D02*
X226782381Y-115546048D01*
X226782381Y-115165095D01*
X226830000Y-115069857D01*
X226877619Y-115022238D01*
X226972857Y-114974619D01*
X227115714Y-114974619D01*
X227210952Y-115022238D01*
X227258571Y-115069857D01*
X227306190Y-115165095D01*
X227306190Y-115546048D01*
X227734762Y-114593667D02*
X227782381Y-114450810D01*
X227782381Y-114212714D01*
X227734762Y-114117476D01*
X227687143Y-114069857D01*
X227591905Y-114022238D01*
X227496667Y-114022238D01*
X227401429Y-114069857D01*
X227353810Y-114117476D01*
X227306190Y-114212714D01*
X227258571Y-114403191D01*
X227210952Y-114498429D01*
X227163333Y-114546048D01*
X227068095Y-114593667D01*
X226972857Y-114593667D01*
X226877619Y-114546048D01*
X226830000Y-114498429D01*
X226782381Y-114403191D01*
X226782381Y-114165095D01*
X226830000Y-114022238D01*
X226782381Y-113736524D02*
X226782381Y-113165095D01*
X227782381Y-113450810D02*
X226782381Y-113450810D01*
X229322381Y-114363476D02*
X229322381Y-114839667D01*
X229798571Y-114887286D01*
X229750952Y-114839667D01*
X229703333Y-114744429D01*
X229703333Y-114506333D01*
X229750952Y-114411095D01*
X229798571Y-114363476D01*
X229893810Y-114315857D01*
X230131905Y-114315857D01*
X230227143Y-114363476D01*
X230274762Y-114411095D01*
X230322381Y-114506333D01*
X230322381Y-114744429D01*
X230274762Y-114839667D01*
X230227143Y-114887286D01*
X229322381Y-114030143D02*
X230322381Y-113696810D01*
X229322381Y-113363476D01*
X232862381Y-114958714D02*
X231862381Y-114958714D01*
X232862381Y-114387285D01*
X231862381Y-114387285D01*
X232767143Y-113339666D02*
X232814762Y-113387285D01*
X232862381Y-113530142D01*
X232862381Y-113625380D01*
X232814762Y-113768238D01*
X232719524Y-113863476D01*
X232624286Y-113911095D01*
X232433810Y-113958714D01*
X232290952Y-113958714D01*
X232100476Y-113911095D01*
X232005238Y-113863476D01*
X231910000Y-113768238D01*
X231862381Y-113625380D01*
X231862381Y-113530142D01*
X231910000Y-113387285D01*
X231957619Y-113339666D01*
X221464476Y-118435381D02*
X221464476Y-117435381D01*
X221845429Y-117435381D01*
X221940667Y-117483000D01*
X221988286Y-117530619D01*
X222035905Y-117625857D01*
X222035905Y-117768714D01*
X221988286Y-117863952D01*
X221940667Y-117911571D01*
X221845429Y-117959190D01*
X221464476Y-117959190D01*
X222654952Y-117435381D02*
X222845429Y-117435381D01*
X222940667Y-117483000D01*
X223035905Y-117578238D01*
X223083524Y-117768714D01*
X223083524Y-118102048D01*
X223035905Y-118292524D01*
X222940667Y-118387762D01*
X222845429Y-118435381D01*
X222654952Y-118435381D01*
X222559714Y-118387762D01*
X222464476Y-118292524D01*
X222416857Y-118102048D01*
X222416857Y-117768714D01*
X222464476Y-117578238D01*
X222559714Y-117483000D01*
X222654952Y-117435381D01*
X223416857Y-117435381D02*
X223654952Y-118435381D01*
X223845429Y-117721095D01*
X224035905Y-118435381D01*
X224274000Y-117435381D01*
X224654952Y-117911571D02*
X224988286Y-117911571D01*
X225131143Y-118435381D02*
X224654952Y-118435381D01*
X224654952Y-117435381D01*
X225131143Y-117435381D01*
X226131143Y-118435381D02*
X225797809Y-117959190D01*
X225559714Y-118435381D02*
X225559714Y-117435381D01*
X225940667Y-117435381D01*
X226035905Y-117483000D01*
X226083524Y-117530619D01*
X226131143Y-117625857D01*
X226131143Y-117768714D01*
X226083524Y-117863952D01*
X226035905Y-117911571D01*
X225940667Y-117959190D01*
X225559714Y-117959190D01*
X197302381Y-156575000D02*
X196302381Y-156575000D01*
X196302381Y-155908334D02*
X196302381Y-155717857D01*
X196350000Y-155622619D01*
X196445238Y-155527381D01*
X196635714Y-155479762D01*
X196969048Y-155479762D01*
X197159524Y-155527381D01*
X197254762Y-155622619D01*
X197302381Y-155717857D01*
X197302381Y-155908334D01*
X197254762Y-156003572D01*
X197159524Y-156098810D01*
X196969048Y-156146429D01*
X196635714Y-156146429D01*
X196445238Y-156098810D01*
X196350000Y-156003572D01*
X196302381Y-155908334D01*
X196302381Y-154860715D02*
X196302381Y-154765476D01*
X196350000Y-154670238D01*
X196397619Y-154622619D01*
X196492857Y-154575000D01*
X196683333Y-154527381D01*
X196921429Y-154527381D01*
X197111905Y-154575000D01*
X197207143Y-154622619D01*
X197254762Y-154670238D01*
X197302381Y-154765476D01*
X197302381Y-154860715D01*
X197254762Y-154955953D01*
X197207143Y-155003572D01*
X197111905Y-155051191D01*
X196921429Y-155098810D01*
X196683333Y-155098810D01*
X196492857Y-155051191D01*
X196397619Y-155003572D01*
X196350000Y-154955953D01*
X196302381Y-154860715D01*
X199842381Y-156575000D02*
X198842381Y-156575000D01*
X198842381Y-155908334D02*
X198842381Y-155717857D01*
X198890000Y-155622619D01*
X198985238Y-155527381D01*
X199175714Y-155479762D01*
X199509048Y-155479762D01*
X199699524Y-155527381D01*
X199794762Y-155622619D01*
X199842381Y-155717857D01*
X199842381Y-155908334D01*
X199794762Y-156003572D01*
X199699524Y-156098810D01*
X199509048Y-156146429D01*
X199175714Y-156146429D01*
X198985238Y-156098810D01*
X198890000Y-156003572D01*
X198842381Y-155908334D01*
X199842381Y-154527381D02*
X199842381Y-155098810D01*
X199842381Y-154813096D02*
X198842381Y-154813096D01*
X198985238Y-154908334D01*
X199080476Y-155003572D01*
X199128095Y-155098810D01*
X202382381Y-156575000D02*
X201382381Y-156575000D01*
X201382381Y-155908334D02*
X201382381Y-155717857D01*
X201430000Y-155622619D01*
X201525238Y-155527381D01*
X201715714Y-155479762D01*
X202049048Y-155479762D01*
X202239524Y-155527381D01*
X202334762Y-155622619D01*
X202382381Y-155717857D01*
X202382381Y-155908334D01*
X202334762Y-156003572D01*
X202239524Y-156098810D01*
X202049048Y-156146429D01*
X201715714Y-156146429D01*
X201525238Y-156098810D01*
X201430000Y-156003572D01*
X201382381Y-155908334D01*
X201477619Y-155098810D02*
X201430000Y-155051191D01*
X201382381Y-154955953D01*
X201382381Y-154717857D01*
X201430000Y-154622619D01*
X201477619Y-154575000D01*
X201572857Y-154527381D01*
X201668095Y-154527381D01*
X201810952Y-154575000D01*
X202382381Y-155146429D01*
X202382381Y-154527381D01*
X204922381Y-156575000D02*
X203922381Y-156575000D01*
X203922381Y-155908334D02*
X203922381Y-155717857D01*
X203970000Y-155622619D01*
X204065238Y-155527381D01*
X204255714Y-155479762D01*
X204589048Y-155479762D01*
X204779524Y-155527381D01*
X204874762Y-155622619D01*
X204922381Y-155717857D01*
X204922381Y-155908334D01*
X204874762Y-156003572D01*
X204779524Y-156098810D01*
X204589048Y-156146429D01*
X204255714Y-156146429D01*
X204065238Y-156098810D01*
X203970000Y-156003572D01*
X203922381Y-155908334D01*
X203922381Y-155146429D02*
X203922381Y-154527381D01*
X204303333Y-154860715D01*
X204303333Y-154717857D01*
X204350952Y-154622619D01*
X204398571Y-154575000D01*
X204493810Y-154527381D01*
X204731905Y-154527381D01*
X204827143Y-154575000D01*
X204874762Y-154622619D01*
X204922381Y-154717857D01*
X204922381Y-155003572D01*
X204874762Y-155098810D01*
X204827143Y-155146429D01*
X207462381Y-156575000D02*
X206462381Y-156575000D01*
X206462381Y-155908334D02*
X206462381Y-155717857D01*
X206510000Y-155622619D01*
X206605238Y-155527381D01*
X206795714Y-155479762D01*
X207129048Y-155479762D01*
X207319524Y-155527381D01*
X207414762Y-155622619D01*
X207462381Y-155717857D01*
X207462381Y-155908334D01*
X207414762Y-156003572D01*
X207319524Y-156098810D01*
X207129048Y-156146429D01*
X206795714Y-156146429D01*
X206605238Y-156098810D01*
X206510000Y-156003572D01*
X206462381Y-155908334D01*
X206795714Y-154622619D02*
X207462381Y-154622619D01*
X206414762Y-154860715D02*
X207129048Y-155098810D01*
X207129048Y-154479762D01*
X210002381Y-156575000D02*
X209002381Y-156575000D01*
X209002381Y-155908334D02*
X209002381Y-155717857D01*
X209050000Y-155622619D01*
X209145238Y-155527381D01*
X209335714Y-155479762D01*
X209669048Y-155479762D01*
X209859524Y-155527381D01*
X209954762Y-155622619D01*
X210002381Y-155717857D01*
X210002381Y-155908334D01*
X209954762Y-156003572D01*
X209859524Y-156098810D01*
X209669048Y-156146429D01*
X209335714Y-156146429D01*
X209145238Y-156098810D01*
X209050000Y-156003572D01*
X209002381Y-155908334D01*
X209002381Y-154575000D02*
X209002381Y-155051191D01*
X209478571Y-155098810D01*
X209430952Y-155051191D01*
X209383333Y-154955953D01*
X209383333Y-154717857D01*
X209430952Y-154622619D01*
X209478571Y-154575000D01*
X209573810Y-154527381D01*
X209811905Y-154527381D01*
X209907143Y-154575000D01*
X209954762Y-154622619D01*
X210002381Y-154717857D01*
X210002381Y-154955953D01*
X209954762Y-155051191D01*
X209907143Y-155098810D01*
X212542381Y-156575000D02*
X211542381Y-156575000D01*
X211542381Y-155908334D02*
X211542381Y-155717857D01*
X211590000Y-155622619D01*
X211685238Y-155527381D01*
X211875714Y-155479762D01*
X212209048Y-155479762D01*
X212399524Y-155527381D01*
X212494762Y-155622619D01*
X212542381Y-155717857D01*
X212542381Y-155908334D01*
X212494762Y-156003572D01*
X212399524Y-156098810D01*
X212209048Y-156146429D01*
X211875714Y-156146429D01*
X211685238Y-156098810D01*
X211590000Y-156003572D01*
X211542381Y-155908334D01*
X211542381Y-154622619D02*
X211542381Y-154813096D01*
X211590000Y-154908334D01*
X211637619Y-154955953D01*
X211780476Y-155051191D01*
X211970952Y-155098810D01*
X212351905Y-155098810D01*
X212447143Y-155051191D01*
X212494762Y-155003572D01*
X212542381Y-154908334D01*
X212542381Y-154717857D01*
X212494762Y-154622619D01*
X212447143Y-154575000D01*
X212351905Y-154527381D01*
X212113810Y-154527381D01*
X212018571Y-154575000D01*
X211970952Y-154622619D01*
X211923333Y-154717857D01*
X211923333Y-154908334D01*
X211970952Y-155003572D01*
X212018571Y-155051191D01*
X212113810Y-155098810D01*
X215082381Y-156575000D02*
X214082381Y-156575000D01*
X214082381Y-155908334D02*
X214082381Y-155717857D01*
X214130000Y-155622619D01*
X214225238Y-155527381D01*
X214415714Y-155479762D01*
X214749048Y-155479762D01*
X214939524Y-155527381D01*
X215034762Y-155622619D01*
X215082381Y-155717857D01*
X215082381Y-155908334D01*
X215034762Y-156003572D01*
X214939524Y-156098810D01*
X214749048Y-156146429D01*
X214415714Y-156146429D01*
X214225238Y-156098810D01*
X214130000Y-156003572D01*
X214082381Y-155908334D01*
X214082381Y-155146429D02*
X214082381Y-154479762D01*
X215082381Y-154908334D01*
X219146381Y-156575000D02*
X218146381Y-156575000D01*
X218146381Y-155908334D02*
X218146381Y-155717857D01*
X218194000Y-155622619D01*
X218289238Y-155527381D01*
X218479714Y-155479762D01*
X218813048Y-155479762D01*
X219003524Y-155527381D01*
X219098762Y-155622619D01*
X219146381Y-155717857D01*
X219146381Y-155908334D01*
X219098762Y-156003572D01*
X219003524Y-156098810D01*
X218813048Y-156146429D01*
X218479714Y-156146429D01*
X218289238Y-156098810D01*
X218194000Y-156003572D01*
X218146381Y-155908334D01*
X218574952Y-154908334D02*
X218527333Y-155003572D01*
X218479714Y-155051191D01*
X218384476Y-155098810D01*
X218336857Y-155098810D01*
X218241619Y-155051191D01*
X218194000Y-155003572D01*
X218146381Y-154908334D01*
X218146381Y-154717857D01*
X218194000Y-154622619D01*
X218241619Y-154575000D01*
X218336857Y-154527381D01*
X218384476Y-154527381D01*
X218479714Y-154575000D01*
X218527333Y-154622619D01*
X218574952Y-154717857D01*
X218574952Y-154908334D01*
X218622571Y-155003572D01*
X218670190Y-155051191D01*
X218765429Y-155098810D01*
X218955905Y-155098810D01*
X219051143Y-155051191D01*
X219098762Y-155003572D01*
X219146381Y-154908334D01*
X219146381Y-154717857D01*
X219098762Y-154622619D01*
X219051143Y-154575000D01*
X218955905Y-154527381D01*
X218765429Y-154527381D01*
X218670190Y-154575000D01*
X218622571Y-154622619D01*
X218574952Y-154717857D01*
X221686381Y-156575000D02*
X220686381Y-156575000D01*
X220686381Y-155908334D02*
X220686381Y-155717857D01*
X220734000Y-155622619D01*
X220829238Y-155527381D01*
X221019714Y-155479762D01*
X221353048Y-155479762D01*
X221543524Y-155527381D01*
X221638762Y-155622619D01*
X221686381Y-155717857D01*
X221686381Y-155908334D01*
X221638762Y-156003572D01*
X221543524Y-156098810D01*
X221353048Y-156146429D01*
X221019714Y-156146429D01*
X220829238Y-156098810D01*
X220734000Y-156003572D01*
X220686381Y-155908334D01*
X221686381Y-155003572D02*
X221686381Y-154813096D01*
X221638762Y-154717857D01*
X221591143Y-154670238D01*
X221448286Y-154575000D01*
X221257810Y-154527381D01*
X220876857Y-154527381D01*
X220781619Y-154575000D01*
X220734000Y-154622619D01*
X220686381Y-154717857D01*
X220686381Y-154908334D01*
X220734000Y-155003572D01*
X220781619Y-155051191D01*
X220876857Y-155098810D01*
X221114952Y-155098810D01*
X221210190Y-155051191D01*
X221257810Y-155003572D01*
X221305429Y-154908334D01*
X221305429Y-154717857D01*
X221257810Y-154622619D01*
X221210190Y-154575000D01*
X221114952Y-154527381D01*
X224178762Y-156590905D02*
X224226381Y-156448048D01*
X224226381Y-156209952D01*
X224178762Y-156114714D01*
X224131143Y-156067095D01*
X224035905Y-156019476D01*
X223940667Y-156019476D01*
X223845429Y-156067095D01*
X223797810Y-156114714D01*
X223750190Y-156209952D01*
X223702571Y-156400429D01*
X223654952Y-156495667D01*
X223607333Y-156543286D01*
X223512095Y-156590905D01*
X223416857Y-156590905D01*
X223321619Y-156543286D01*
X223274000Y-156495667D01*
X223226381Y-156400429D01*
X223226381Y-156162333D01*
X223274000Y-156019476D01*
X224178762Y-155638524D02*
X224226381Y-155495667D01*
X224226381Y-155257571D01*
X224178762Y-155162333D01*
X224131143Y-155114714D01*
X224035905Y-155067095D01*
X223940667Y-155067095D01*
X223845429Y-155114714D01*
X223797810Y-155162333D01*
X223750190Y-155257571D01*
X223702571Y-155448048D01*
X223654952Y-155543286D01*
X223607333Y-155590905D01*
X223512095Y-155638524D01*
X223416857Y-155638524D01*
X223321619Y-155590905D01*
X223274000Y-155543286D01*
X223226381Y-155448048D01*
X223226381Y-155209952D01*
X223274000Y-155067095D01*
X229306381Y-156638428D02*
X228306381Y-156638428D01*
X229020667Y-156305094D01*
X228306381Y-155971761D01*
X229306381Y-155971761D01*
X228306381Y-155305095D02*
X228306381Y-155114618D01*
X228354000Y-155019380D01*
X228449238Y-154924142D01*
X228639714Y-154876523D01*
X228973048Y-154876523D01*
X229163524Y-154924142D01*
X229258762Y-155019380D01*
X229306381Y-155114618D01*
X229306381Y-155305095D01*
X229258762Y-155400333D01*
X229163524Y-155495571D01*
X228973048Y-155543190D01*
X228639714Y-155543190D01*
X228449238Y-155495571D01*
X228354000Y-155400333D01*
X228306381Y-155305095D01*
X229258762Y-154495571D02*
X229306381Y-154352714D01*
X229306381Y-154114618D01*
X229258762Y-154019380D01*
X229211143Y-153971761D01*
X229115905Y-153924142D01*
X229020667Y-153924142D01*
X228925429Y-153971761D01*
X228877810Y-154019380D01*
X228830190Y-154114618D01*
X228782571Y-154305095D01*
X228734952Y-154400333D01*
X228687333Y-154447952D01*
X228592095Y-154495571D01*
X228496857Y-154495571D01*
X228401619Y-154447952D01*
X228354000Y-154400333D01*
X228306381Y-154305095D01*
X228306381Y-154066999D01*
X228354000Y-153924142D01*
X229306381Y-153495571D02*
X228306381Y-153495571D01*
X231798762Y-156606714D02*
X231846381Y-156463857D01*
X231846381Y-156225761D01*
X231798762Y-156130523D01*
X231751143Y-156082904D01*
X231655905Y-156035285D01*
X231560667Y-156035285D01*
X231465429Y-156082904D01*
X231417810Y-156130523D01*
X231370190Y-156225761D01*
X231322571Y-156416238D01*
X231274952Y-156511476D01*
X231227333Y-156559095D01*
X231132095Y-156606714D01*
X231036857Y-156606714D01*
X230941619Y-156559095D01*
X230894000Y-156511476D01*
X230846381Y-156416238D01*
X230846381Y-156178142D01*
X230894000Y-156035285D01*
X231751143Y-155035285D02*
X231798762Y-155082904D01*
X231846381Y-155225761D01*
X231846381Y-155320999D01*
X231798762Y-155463857D01*
X231703524Y-155559095D01*
X231608286Y-155606714D01*
X231417810Y-155654333D01*
X231274952Y-155654333D01*
X231084476Y-155606714D01*
X230989238Y-155559095D01*
X230894000Y-155463857D01*
X230846381Y-155320999D01*
X230846381Y-155225761D01*
X230894000Y-155082904D01*
X230941619Y-155035285D01*
X231846381Y-154606714D02*
X230846381Y-154606714D01*
X231846381Y-154035285D02*
X231274952Y-154463857D01*
X230846381Y-154035285D02*
X231417810Y-154606714D01*
X226766381Y-156638428D02*
X225766381Y-156638428D01*
X226480667Y-156305094D01*
X225766381Y-155971761D01*
X226766381Y-155971761D01*
X226766381Y-155495571D02*
X225766381Y-155495571D01*
X226718762Y-155067000D02*
X226766381Y-154924143D01*
X226766381Y-154686047D01*
X226718762Y-154590809D01*
X226671143Y-154543190D01*
X226575905Y-154495571D01*
X226480667Y-154495571D01*
X226385429Y-154543190D01*
X226337810Y-154590809D01*
X226290190Y-154686047D01*
X226242571Y-154876524D01*
X226194952Y-154971762D01*
X226147333Y-155019381D01*
X226052095Y-155067000D01*
X225956857Y-155067000D01*
X225861619Y-155019381D01*
X225814000Y-154971762D01*
X225766381Y-154876524D01*
X225766381Y-154638428D01*
X225814000Y-154495571D01*
X225766381Y-153876524D02*
X225766381Y-153686047D01*
X225814000Y-153590809D01*
X225909238Y-153495571D01*
X226099714Y-153447952D01*
X226433048Y-153447952D01*
X226623524Y-153495571D01*
X226718762Y-153590809D01*
X226766381Y-153686047D01*
X226766381Y-153876524D01*
X226718762Y-153971762D01*
X226623524Y-154067000D01*
X226433048Y-154114619D01*
X226099714Y-154114619D01*
X225909238Y-154067000D01*
X225814000Y-153971762D01*
X225766381Y-153876524D01*
X236640667Y-156686048D02*
X236640667Y-156209857D01*
X236926381Y-156781286D02*
X235926381Y-156447953D01*
X236926381Y-156114619D01*
X236926381Y-155209857D02*
X236450190Y-155543191D01*
X236926381Y-155781286D02*
X235926381Y-155781286D01*
X235926381Y-155400333D01*
X235974000Y-155305095D01*
X236021619Y-155257476D01*
X236116857Y-155209857D01*
X236259714Y-155209857D01*
X236354952Y-155257476D01*
X236402571Y-155305095D01*
X236450190Y-155400333D01*
X236450190Y-155781286D01*
X236402571Y-154781286D02*
X236402571Y-154447952D01*
X236926381Y-154305095D02*
X236926381Y-154781286D01*
X235926381Y-154781286D01*
X235926381Y-154305095D01*
X236402571Y-153543190D02*
X236402571Y-153876524D01*
X236926381Y-153876524D02*
X235926381Y-153876524D01*
X235926381Y-153400333D01*
X233434000Y-156082904D02*
X233386381Y-156178142D01*
X233386381Y-156320999D01*
X233434000Y-156463857D01*
X233529238Y-156559095D01*
X233624476Y-156606714D01*
X233814952Y-156654333D01*
X233957810Y-156654333D01*
X234148286Y-156606714D01*
X234243524Y-156559095D01*
X234338762Y-156463857D01*
X234386381Y-156320999D01*
X234386381Y-156225761D01*
X234338762Y-156082904D01*
X234291143Y-156035285D01*
X233957810Y-156035285D01*
X233957810Y-156225761D01*
X234386381Y-155606714D02*
X233386381Y-155606714D01*
X234386381Y-155035285D01*
X233386381Y-155035285D01*
X234386381Y-154559095D02*
X233386381Y-154559095D01*
X233386381Y-154321000D01*
X233434000Y-154178142D01*
X233529238Y-154082904D01*
X233624476Y-154035285D01*
X233814952Y-153987666D01*
X233957810Y-153987666D01*
X234148286Y-154035285D01*
X234243524Y-154082904D01*
X234338762Y-154178142D01*
X234386381Y-154321000D01*
X234386381Y-154559095D01*
X239418762Y-156535286D02*
X239466381Y-156392429D01*
X239466381Y-156154333D01*
X239418762Y-156059095D01*
X239371143Y-156011476D01*
X239275905Y-155963857D01*
X239180667Y-155963857D01*
X239085429Y-156011476D01*
X239037810Y-156059095D01*
X238990190Y-156154333D01*
X238942571Y-156344810D01*
X238894952Y-156440048D01*
X238847333Y-156487667D01*
X238752095Y-156535286D01*
X238656857Y-156535286D01*
X238561619Y-156487667D01*
X238514000Y-156440048D01*
X238466381Y-156344810D01*
X238466381Y-156106714D01*
X238514000Y-155963857D01*
X239466381Y-155535286D02*
X238466381Y-155535286D01*
X238466381Y-155297191D01*
X238514000Y-155154333D01*
X238609238Y-155059095D01*
X238704476Y-155011476D01*
X238894952Y-154963857D01*
X239037810Y-154963857D01*
X239228286Y-155011476D01*
X239323524Y-155059095D01*
X239418762Y-155154333D01*
X239466381Y-155297191D01*
X239466381Y-155535286D01*
X239180667Y-154582905D02*
X239180667Y-154106714D01*
X239466381Y-154678143D02*
X238466381Y-154344810D01*
X239466381Y-154011476D01*
X241958762Y-156511476D02*
X242006381Y-156368619D01*
X242006381Y-156130523D01*
X241958762Y-156035285D01*
X241911143Y-155987666D01*
X241815905Y-155940047D01*
X241720667Y-155940047D01*
X241625429Y-155987666D01*
X241577810Y-156035285D01*
X241530190Y-156130523D01*
X241482571Y-156321000D01*
X241434952Y-156416238D01*
X241387333Y-156463857D01*
X241292095Y-156511476D01*
X241196857Y-156511476D01*
X241101619Y-156463857D01*
X241054000Y-156416238D01*
X241006381Y-156321000D01*
X241006381Y-156082904D01*
X241054000Y-155940047D01*
X241911143Y-154940047D02*
X241958762Y-154987666D01*
X242006381Y-155130523D01*
X242006381Y-155225761D01*
X241958762Y-155368619D01*
X241863524Y-155463857D01*
X241768286Y-155511476D01*
X241577810Y-155559095D01*
X241434952Y-155559095D01*
X241244476Y-155511476D01*
X241149238Y-155463857D01*
X241054000Y-155368619D01*
X241006381Y-155225761D01*
X241006381Y-155130523D01*
X241054000Y-154987666D01*
X241101619Y-154940047D01*
X242006381Y-154035285D02*
X242006381Y-154511476D01*
X241006381Y-154511476D01*
X137668095Y-41362381D02*
X137668095Y-42171905D01*
X137715714Y-42267143D01*
X137763333Y-42314762D01*
X137858571Y-42362381D01*
X138049048Y-42362381D01*
X138144286Y-42314762D01*
X138191905Y-42267143D01*
X138239524Y-42171905D01*
X138239524Y-41362381D01*
X138858571Y-41790952D02*
X138763333Y-41743333D01*
X138715714Y-41695714D01*
X138668095Y-41600476D01*
X138668095Y-41552857D01*
X138715714Y-41457619D01*
X138763333Y-41410000D01*
X138858571Y-41362381D01*
X139049048Y-41362381D01*
X139144286Y-41410000D01*
X139191905Y-41457619D01*
X139239524Y-41552857D01*
X139239524Y-41600476D01*
X139191905Y-41695714D01*
X139144286Y-41743333D01*
X139049048Y-41790952D01*
X138858571Y-41790952D01*
X138763333Y-41838571D01*
X138715714Y-41886190D01*
X138668095Y-41981429D01*
X138668095Y-42171905D01*
X138715714Y-42267143D01*
X138763333Y-42314762D01*
X138858571Y-42362381D01*
X139049048Y-42362381D01*
X139144286Y-42314762D01*
X139191905Y-42267143D01*
X139239524Y-42171905D01*
X139239524Y-41981429D01*
X139191905Y-41886190D01*
X139144286Y-41838571D01*
X139049048Y-41790952D01*
X162591905Y-41362381D02*
X162591905Y-42171905D01*
X162639524Y-42267143D01*
X162687143Y-42314762D01*
X162782381Y-42362381D01*
X162972858Y-42362381D01*
X163068096Y-42314762D01*
X163115715Y-42267143D01*
X163163334Y-42171905D01*
X163163334Y-41362381D01*
X164163334Y-42362381D02*
X163591905Y-42362381D01*
X163877619Y-42362381D02*
X163877619Y-41362381D01*
X163782381Y-41505238D01*
X163687143Y-41600476D01*
X163591905Y-41648095D01*
X165115715Y-42362381D02*
X164544286Y-42362381D01*
X164830000Y-42362381D02*
X164830000Y-41362381D01*
X164734762Y-41505238D01*
X164639524Y-41600476D01*
X164544286Y-41648095D01*
X187991905Y-41362381D02*
X187991905Y-42171905D01*
X188039524Y-42267143D01*
X188087143Y-42314762D01*
X188182381Y-42362381D01*
X188372858Y-42362381D01*
X188468096Y-42314762D01*
X188515715Y-42267143D01*
X188563334Y-42171905D01*
X188563334Y-41362381D01*
X189563334Y-42362381D02*
X188991905Y-42362381D01*
X189277619Y-42362381D02*
X189277619Y-41362381D01*
X189182381Y-41505238D01*
X189087143Y-41600476D01*
X188991905Y-41648095D01*
X189944286Y-41457619D02*
X189991905Y-41410000D01*
X190087143Y-41362381D01*
X190325239Y-41362381D01*
X190420477Y-41410000D01*
X190468096Y-41457619D01*
X190515715Y-41552857D01*
X190515715Y-41648095D01*
X190468096Y-41790952D01*
X189896667Y-42362381D01*
X190515715Y-42362381D01*
X213391905Y-41362381D02*
X213391905Y-42171905D01*
X213439524Y-42267143D01*
X213487143Y-42314762D01*
X213582381Y-42362381D01*
X213772858Y-42362381D01*
X213868096Y-42314762D01*
X213915715Y-42267143D01*
X213963334Y-42171905D01*
X213963334Y-41362381D01*
X214963334Y-42362381D02*
X214391905Y-42362381D01*
X214677619Y-42362381D02*
X214677619Y-41362381D01*
X214582381Y-41505238D01*
X214487143Y-41600476D01*
X214391905Y-41648095D01*
X215296667Y-41362381D02*
X215915715Y-41362381D01*
X215582381Y-41743333D01*
X215725239Y-41743333D01*
X215820477Y-41790952D01*
X215868096Y-41838571D01*
X215915715Y-41933810D01*
X215915715Y-42171905D01*
X215868096Y-42267143D01*
X215820477Y-42314762D01*
X215725239Y-42362381D01*
X215439524Y-42362381D01*
X215344286Y-42314762D01*
X215296667Y-42267143D01*
X238791905Y-41362381D02*
X238791905Y-42171905D01*
X238839524Y-42267143D01*
X238887143Y-42314762D01*
X238982381Y-42362381D01*
X239172858Y-42362381D01*
X239268096Y-42314762D01*
X239315715Y-42267143D01*
X239363334Y-42171905D01*
X239363334Y-41362381D01*
X240363334Y-42362381D02*
X239791905Y-42362381D01*
X240077619Y-42362381D02*
X240077619Y-41362381D01*
X239982381Y-41505238D01*
X239887143Y-41600476D01*
X239791905Y-41648095D01*
X241220477Y-41695714D02*
X241220477Y-42362381D01*
X240982381Y-41314762D02*
X240744286Y-42029048D01*
X241363334Y-42029048D01*
M02*
